<?xml version="1.0" encoding="UTF-8"?>
<svg version="1.1" xmlns="http://www.w3.org/2000/svg" width="3068" height="858">
<path d="M0 0 C1012.44 0 2024.88 0 3068 0 C3068 283.14 3068 566.28 3068 858 C2055.56 858 1043.12 858 0 858 C0 574.86 0 291.72 0 0 Z " fill="#FEFEFE" transform="translate(0,0)"/>
<path d="M0 0 C1.135306 -0.00155999 2.270612 -0.00311998 3.44032121 -0.00472724 C7.22872116 -0.00870268 11.01708074 -0.00556104 14.80548096 -0.00241089 C17.52772606 -0.00321653 20.24996947 -0.00551116 22.97221375 -0.00772095 C29.58811001 -0.01215807 36.2039949 -0.0112115 42.8198916 -0.00830831 C48.19625609 -0.00604695 53.57261741 -0.00574493 58.94898224 -0.00683212 C59.71509428 -0.00698536 60.48120632 -0.00713859 61.27053387 -0.00729647 C62.82698041 -0.0076162 64.38342695 -0.00794041 65.93987349 -0.00826906 C80.51916322 -0.01111762 95.09844666 -0.0078462 109.67773536 -0.00246869 C122.18695449 0.00200236 134.69616434 0.00121973 147.2053833 -0.00338745 C161.73986566 -0.00873805 176.27434252 -0.01084676 190.80882573 -0.00777519 C192.35821994 -0.00745664 193.90761415 -0.00714227 195.45700836 -0.00683212 C196.21930846 -0.00667785 196.98160855 -0.00652357 197.76700865 -0.00636462 C203.13885051 -0.00550119 208.51068889 -0.00695853 213.88253021 -0.00931168 C220.42586054 -0.01211509 226.96917887 -0.01135979 233.51250783 -0.00603093 C236.85084045 -0.00340181 240.18913648 -0.00291338 243.52747154 -0.00568008 C247.14455519 -0.00840202 250.7615821 -0.00499759 254.37866211 0 C255.9642962 -0.00334608 255.9642962 -0.00334608 257.5819633 -0.00675976 C259.03592159 -0.00284814 259.03592159 -0.00284814 260.51925278 0.0011425 C261.77127727 0.00138603 261.77127727 0.00138603 263.04859519 0.00163448 C265.59195299 0.13520745 267.94629222 0.60275143 270.43536377 1.12698364 C272.33098105 1.17753344 274.22687721 1.21799669 276.12286377 1.25198364 C316.96808193 3.99788066 356.95244616 26.92688636 385.93927002 54.69387817 C387.32599799 56.02222236 388.72397167 57.3387995 390.12286377 58.65432739 C396.64510678 64.94217729 402.20027437 71.76266793 407.43536377 79.12698364 C408.09471924 80.05244995 408.09471924 80.05244995 408.76739502 80.99661255 C420.08540754 97.12151872 429.1075169 115.13291246 434.43536377 134.12698364 C434.64886475 134.87963501 434.86236572 135.63228638 435.08233643 136.40774536 C439.98494421 153.82720354 442.60212197 170.69899982 442.56234741 188.83323669 C442.5639074 189.9477161 442.56546739 191.0621955 442.56707466 192.21044701 C442.57103419 195.91091119 442.56791467 199.61133368 442.5647583 203.3117981 C442.5661146 205.97885252 442.56785996 208.64590417 442.57006836 211.31295776 C442.57449794 217.78541252 442.573562 224.25785563 442.57065572 230.73031083 C442.56839002 235.99591505 442.56809421 241.26151602 442.56917953 246.52712059 C442.56940938 247.65469593 442.56940938 247.65469593 442.56964388 248.80505058 C442.56996363 250.3325672 442.57028784 251.86008382 442.57061647 253.38760044 C442.57346318 267.68774719 442.57019724 281.98788752 442.5648161 296.28803321 C442.56035154 308.53082134 442.5611227 320.77359998 442.56573486 333.01638794 C442.57109966 347.26349471 442.57318569 361.51059585 442.5701226 375.75770348 C442.56980408 377.28026879 442.56948971 378.80283409 442.56917953 380.3253994 C442.56902526 381.07435097 442.56887098 381.82330254 442.56871203 382.59494961 C442.56785238 387.84641079 442.56929788 393.09786837 442.57165909 398.34932899 C442.57447861 404.76054865 442.57367387 411.17175608 442.56837834 417.58297435 C442.56576976 420.84762853 442.56523571 424.11225845 442.5680275 427.37691307 C442.60447739 474.35265266 432.82394176 519.86479873 402.43536377 557.12698364 C402.0235083 557.63890259 401.61165283 558.15082153 401.18731689 558.67825317 C374.7564815 591.41870529 340.66962211 612.30616232 300.43536377 624.12698364 C299.66139098 624.35949634 298.8874182 624.59200904 298.08999169 624.83156759 C291.73011608 626.66785221 285.63454548 627.7886824 279.040802 628.2973175 C277.56683561 628.41689167 277.56683561 628.41689167 276.06309211 628.53888148 C263.30469367 629.47750143 250.53385354 629.41494352 237.74835205 629.40164185 C234.94498783 629.4049147 232.14163161 629.41112428 229.33827209 629.41712952 C222.57454391 629.42974953 215.81085565 629.43168666 209.04711767 629.42932925 C203.54437602 629.42753308 198.04164632 629.42932323 192.5389061 629.4335537 C191.75040198 629.43414888 190.96189786 629.43474407 190.14949968 629.4353573 C188.54685339 629.43656925 186.94420711 629.43778338 185.34156083 629.43899968 C170.38318789 629.44982426 155.42483761 629.44773579 140.46646343 629.44161483 C126.81884469 629.43643892 113.17129717 629.44772796 99.5236925 629.46671305 C85.45309115 629.48613431 71.38252343 629.49434066 57.3119086 629.4905898 C49.43491633 629.4886857 41.5579848 629.49108852 33.68100357 629.50530434 C26.98242132 629.51727335 20.28393731 629.51856089 13.58535357 629.50651417 C10.17648442 629.50066653 6.76794001 629.50106965 3.35906029 629.51151657 C-10.63173299 629.55128135 -23.89321957 629.28805571 -37.56463623 626.12698364 C-38.96108309 625.82226067 -40.35791102 625.51927891 -41.75510979 625.21802235 C-89.34192862 614.80984563 -131.06736465 583.4462545 -157.56463623 543.12698364 C-160.82727626 537.93017509 -163.75783646 532.58096145 -166.56463623 527.12698364 C-167.16662842 525.97585083 -167.76862061 524.82471802 -168.38885498 523.63870239 C-179.49071796 501.21044438 -186.91247449 475.66484875 -186.82533264 450.58157349 C-186.82915819 449.388802 -186.83298374 448.19603052 -186.83692521 446.96711445 C-186.84538516 443.69632033 -186.84504977 440.42567214 -186.84074461 437.15487456 C-186.83825848 433.61137098 -186.84731501 430.06789282 -186.8547821 426.5243988 C-186.86748116 419.59619796 -186.86932864 412.66803595 -186.86698184 405.73982543 C-186.86519238 400.10053274 -186.86696174 394.46125175 -186.87120628 388.82196045 C-186.87180147 388.01660416 -186.87239666 387.21124786 -186.87300989 386.38148683 C-186.87422177 384.74486613 -186.8754359 383.10824543 -186.87665226 381.47162473 C-186.8875103 366.14787493 -186.88537412 350.82414717 -186.87926742 335.50039613 C-186.87410532 321.5250516 -186.8853381 307.54977692 -186.90436564 293.5744462 C-186.92380724 279.18321874 -186.93198865 264.7920242 -186.92824239 250.40078354 C-186.92633919 242.33795625 -186.92873074 234.27518831 -186.94295692 226.21237183 C-186.95495297 219.3445805 -186.95618493 212.47688502 -186.94416676 205.60909218 C-186.93833379 202.11477819 -186.9370204 198.62063875 -186.94916916 195.12633705 C-187.00470649 175.14910881 -186.21740123 155.75669951 -180.18963623 136.56448364 C-179.88146973 135.55128052 -179.57330322 134.53807739 -179.25579834 133.49417114 C-177.09350063 126.50993263 -174.73569852 119.72425117 -171.56463623 113.12698364 C-171.29071045 112.54110474 -171.01678467 111.95522583 -170.73455811 111.35159302 C-160.57843871 89.70129097 -147.19781413 71.2442333 -130.56463623 54.12698364 C-129.98423584 53.52684448 -129.40383545 52.92670532 -128.80584717 52.30838013 C-125.09073704 48.52182558 -121.25709405 45.06282667 -117.06463623 41.81448364 C-116.16515259 41.1157312 -116.16515259 41.1157312 -115.24749756 40.40286255 C-97.13832953 26.5103188 -78.06699385 16.71256292 -56.56463623 9.12698364 C-55.43799561 8.71577271 -54.31135498 8.30456177 -53.15057373 7.88088989 C-36.35446786 2.18616798 -17.66775556 -0.03760075 0 0 Z " fill="#000000" transform="translate(468.56463623046875,111.87301635742188)"/>
<path d="M0 0 C1.18070068 0.00845947 1.18070068 0.00845947 2.38525391 0.01708984 C18.62640226 0.35247238 32.65908773 6.97794282 44.25 18.3125 C56.8262555 33.21857221 59.38230009 48.41387224 58.25 67.3125 C56.42316187 81.57844505 47.51425009 94.78928208 36.39453125 103.56640625 C29.65021577 108.30400432 21.74931566 113.3125 13.25 113.3125 C13.58 119.9125 13.91 126.5125 14.25 133.3125 C21.47603552 136.99327487 28.70699741 140.6638038 35.94723129 144.31655216 C39.30890425 146.0130495 42.66819757 147.71394191 46.02246094 149.42504883 C49.25916503 151.07597963 52.50157935 152.71513953 55.74829865 154.34628105 C56.98638022 154.97086805 58.22234041 155.5996785 59.45610809 156.23274422 C61.18350449 157.11819452 62.9192294 157.98733991 64.65527344 158.85571289 C65.64122498 159.35535049 66.62717651 159.8549881 67.64300537 160.36976624 C70.4657764 161.39052843 71.52833332 161.47671905 74.25 160.3125 C74.9925 159.71824219 75.735 159.12398437 76.5 158.51171875 C79.86787383 155.81837647 83.39442901 154.0207743 87.25 152.125 C87.94867187 151.76986328 88.64734375 151.41472656 89.3671875 151.04882812 C100.79881604 145.36536752 116.21984032 145.56566877 128.35546875 149.21484375 C146.13597583 155.95751917 157.02726712 166.39267788 165.69921875 183.10546875 C170.40362701 194.54460882 170.24295594 211.3582312 166.21484375 223.015625 C165.89644531 223.77359375 165.57804687 224.5315625 165.25 225.3125 C164.92128906 226.13234375 164.59257813 226.9521875 164.25390625 227.796875 C157.18310561 243.5532612 144.71180429 252.83723627 129.21875 259.28125 C126.25 260.3125 126.25 260.3125 123.25 260.3125 C123.25 271.8625 123.25 283.4125 123.25 295.3125 C126.55 295.9725 129.85 296.6325 133.25 297.3125 C148.16194949 304.35425393 160.17880785 315.93944503 166.07470703 331.48730469 C168.25599795 337.99626643 168.70687112 343.98080969 168.625 350.8125 C168.63660156 351.78058594 168.64820313 352.74867188 168.66015625 353.74609375 C168.59934085 368.84858419 161.82368362 382.61807285 151.25 393.3125 C135.89307414 405.81826805 119.79569321 409.86703983 100.25 408.3125 C85.09535719 405.64905888 71.91563635 395.31346489 63 383.125 C54.61731319 369.88549186 52.21482045 353.74439428 54.93359375 338.47265625 C59.68128477 320.64418999 69.62533014 308.67980807 85.25 299.3125 C90.54538973 296.64327916 94.26053551 295.3125 100.25 295.3125 C100.25 283.7625 100.25 272.2125 100.25 260.3125 C98.27 259.9825 96.29 259.6525 94.25 259.3125 C79.76810592 254.8228826 68.58201931 245.17030554 60.75390625 232.29296875 C58.17829101 227.18856764 56.65922537 221.83575427 55.25 216.3125 C55.0742041 215.67578369 54.8984082 215.03906738 54.71728516 214.38305664 C52.7332274 205.59162831 53.4028312 194.5363181 56.59375 186.16015625 C57.41734761 184.16812663 57.41734761 184.16812663 57.25 181.3125 C50.32244687 177.75593948 43.38628264 174.21683392 36.43869591 170.69959927 C33.21270326 169.06575046 29.9899504 167.42609988 26.77392578 165.77270508 C23.66867091 164.17653529 20.55580127 162.59624593 17.43709183 161.02653694 C15.67351204 160.13378685 13.9181377 159.22488684 12.16293335 158.31578064 C11.08226593 157.77514481 10.00159851 157.23450897 8.88818359 156.67749023 C7.94220306 156.19561752 6.99622253 155.71374481 6.02157593 155.2172699 C0.72702136 153.4888837 -3.43134464 155.40283742 -8.20458984 157.81274414 C-9.24521576 158.33320816 -10.28584167 158.85367218 -11.35800171 159.38990784 C-12.46447052 159.95346481 -13.57093933 160.51702179 -14.7109375 161.09765625 C-16.42949448 161.96117958 -16.42949448 161.96117958 -18.18276978 162.84214783 C-21.21452211 164.36562526 -24.2413434 165.89865383 -27.26721191 167.43377686 C-30.36139804 169.0014043 -33.46018799 170.55987482 -36.55859375 172.11914062 C-42.62691228 175.17468782 -48.69006656 178.24035809 -54.75 181.3125 C-54.53846786 182.11716202 -54.32693573 182.92182404 -54.10899353 183.75086975 C-53.83446854 184.81671799 -53.55994354 185.88256622 -53.27709961 186.98071289 C-52.86698891 188.55895592 -52.86698891 188.55895592 -52.44859314 190.16908264 C-51.43678585 194.72185077 -51.2565486 199.10162788 -51.3125 203.75 C-51.32079834 204.65741943 -51.32909668 205.56483887 -51.33764648 206.49975586 C-51.69210611 220.66931109 -57.19840255 234.05616151 -66.83203125 244.59375 C-75.87415084 252.69666776 -85.68367144 258.58873878 -97.75 260.3125 C-97.75 271.8625 -97.75 283.4125 -97.75 295.3125 C-95.44 295.6425 -93.13 295.9725 -90.75 296.3125 C-76.98027579 301.24881623 -64.95433152 310.49882577 -57.75 323.3125 C-51.12203996 338.19965376 -48.25169754 355.3128748 -54.25 371 C-60.21020917 385.40534484 -71.31445873 397.87494505 -85.64794922 404.24291992 C-99.20014726 409.76560112 -115.25884297 411.34318971 -129.09765625 405.625 C-129.97292969 405.191875 -130.84820312 404.75875 -131.75 404.3125 C-133.23306641 403.6009375 -133.23306641 403.6009375 -134.74609375 402.875 C-149.33009554 395.14640797 -158.54894305 383.28425544 -163.98828125 367.953125 C-168.36074506 352.79525046 -166.70250185 335.9432491 -159.125 322.1875 C-150.83225218 309.44851582 -139.57686276 299.5487465 -124.75 295.3125 C-123.1 295.3125 -121.45 295.3125 -119.75 295.3125 C-119.75 283.7625 -119.75 272.2125 -119.75 260.3125 C-122.39 259.9825 -125.03 259.6525 -127.75 259.3125 C-140.96604621 254.62460926 -151.57770172 245.19973531 -158.75 233.3125 C-159.51570313 232.15041016 -159.51570313 232.15041016 -160.296875 230.96484375 C-167.3071528 218.16920229 -167.98645141 200.17620579 -164.1875 186.3125 C-161.93237451 180.04914792 -158.66663911 174.66984116 -154.75 169.3125 C-154.28851563 168.66667969 -153.82703125 168.02085937 -153.3515625 167.35546875 C-147.43431841 159.77934409 -138.60737196 153.92170472 -129.75 150.3125 C-129.07453125 150.01472656 -128.3990625 149.71695313 -127.703125 149.41015625 C-114.38548739 144.42752287 -97.82038371 146.4464697 -84.75 151.3125 C-80.05655247 153.75932099 -75.66227803 156.4818436 -71.828125 160.15234375 C-69.71450696 161.6502104 -69.71450696 161.6502104 -66.97705078 160.55737305 C-63.89320039 159.36774125 -60.9879874 158.04530367 -58.0390625 156.5546875 C-56.96648193 156.01521484 -55.89390137 155.47574219 -54.78881836 154.91992188 C-53.6622583 154.34822266 -52.53569824 153.77652344 -51.375 153.1875 C-49.03518484 152.0077558 -46.69534115 150.82806818 -44.35546875 149.6484375 C-43.22286621 149.07577148 -42.09026367 148.50310547 -40.92333984 147.91308594 C-38.22037132 146.54974837 -35.5131608 145.19604375 -32.80078125 143.8515625 C-26.58523338 140.77044795 -20.41024242 137.68521846 -14.44921875 134.125 C-12.75 133.3125 -12.75 133.3125 -9.75 133.3125 C-9.75 126.7125 -9.75 120.1125 -9.75 113.3125 C-12.39 112.9825 -15.03 112.6525 -17.75 112.3125 C-31.40033225 107.267812 -43.15074213 97.50242792 -49.70507812 84.40380859 C-56.09453712 70.37252905 -58.41795464 54.3166399 -53.75 39.3125 C-49.97061248 29.86403121 -45.0723427 22.42374813 -37.75 15.3125 C-37.20988281 14.75175781 -36.66976562 14.19101563 -36.11328125 13.61328125 C-26.52658696 4.41295247 -13.06849705 -0.09898234 0 0 Z " fill="#FBFBFB" transform="translate(594.75,222.6875)"/>
<path d="M0 0 C104.45544554 0 104.45544554 0 119 13 C119.60328125 13.50015625 120.2065625 14.0003125 120.828125 14.515625 C130.34417053 23.03869186 133.56334965 34.72150122 134.25 47.046875 C134.68001228 58.43964072 133.37542421 68.98998368 125.80859375 78.06640625 C118.25622896 86.14074874 111.24928264 90.90349989 101 95 C101 95.99 101 96.98 101 98 C102.77078737 99.38030697 102.77078737 99.38030697 105.0625 100.625 C112.68833094 105.54181118 116.67891065 111.75797545 120.265625 120 C120.56580536 120.6890744 120.86598572 121.3781488 121.17526245 122.08810425 C125.06133289 131.23192577 128.06040819 140.68242613 131.125 150.125 C132.0205874 152.86224518 132.91843631 155.59873612 133.81732178 158.3348999 C134.39667585 160.0986575 134.97470728 161.86285018 135.55133057 163.62750244 C137.61873749 169.92899736 139.82725358 176.1660227 142.14794922 182.37841797 C143 185 143 185 143 188 C130.46 188 117.92 188 105 188 C103.205625 182.59625 101.41125 177.1925 99.5625 171.625 C98.18387354 167.49325049 96.80296659 163.36229497 95.41992188 159.23202515 C94.15249931 155.44660657 92.88622038 151.66085999 91.62890625 147.87207031 C90.45025917 144.32786752 89.25856729 140.78835485 88.0625 137.25 C87.72226807 136.2182666 87.38203613 135.1865332 87.03149414 134.12353516 C83.77605392 124.58137002 79.85575092 116.60828996 70.625 111.75 C60.23568801 108.78162515 46.97938643 109.43388637 37 109 C37 135.07 37 161.14 37 188 C24.79 188 12.58 188 0 188 C0 125.96 0 63.92 0 0 Z " fill="#010101" transform="translate(1755,340)"/>
<path d="M0 0 C15.84 0 31.68 0 48 0 C49.15113281 3.33222656 50.30226563 6.66445313 51.48828125 10.09765625 C51.88771942 11.2539151 52.28715759 12.41017395 52.69869995 13.60147095 C54.55150217 18.96480757 56.40427783 24.32815336 58.25695801 29.69153214 C59.36790475 32.90764125 60.4788697 36.12374407 61.58984375 39.33984375 C61.81527611 39.99243668 62.04070847 40.6450296 62.27297211 41.31739807 C65.0469517 49.34755822 67.82153737 57.37750842 70.59706116 65.40713501 C72.5232668 70.97967856 74.44916787 76.55232735 76.375 82.125 C76.75727753 83.23109619 77.13955505 84.33719238 77.53341675 85.47680664 C82.26097217 99.15704713 86.97951228 112.84035892 91.6875 126.52734375 C92.16801595 127.92411421 92.64853556 129.32088342 93.12905884 130.71765137 C95.22121429 136.79937585 97.31292198 142.88125266 99.40254402 148.96384811 C100.46306464 152.05032746 101.524533 155.13648077 102.5859375 158.22265625 C102.98114594 159.37310425 103.37635437 160.52355225 103.78353882 161.7088623 C106.1940099 168.71061787 108.65935571 175.68755301 111.24462891 182.62670898 C112 185 112 185 112 188 C99.13 188 86.26 188 73 188 C66.13358933 168.54516977 66.13358933 168.54516977 64.3125 162 C62.69203206 156.26948708 60.88678035 150.66034104 59 145 C35.24 144.67 11.48 144.34 -13 144 C-13.99 147.63 -14.98 151.26 -16 155 C-24.96694215 184.96694215 -24.96694215 184.96694215 -27 187 C-29.73894085 187.08858646 -32.4525327 187.11523479 -35.19140625 187.09765625 C-36.01124496 187.0962413 -36.83108368 187.09482635 -37.67576599 187.09336853 C-40.30471382 187.08775289 -42.93357773 187.07519779 -45.5625 187.0625 C-47.34049357 187.05748701 -49.11848846 187.05292376 -50.89648438 187.04882812 C-55.26435545 187.03777839 -59.63216348 187.02050331 -64 187 C-63.39097443 180.27559193 -61.20122261 174.2523851 -58.9765625 167.90625 C-58.56372009 166.71230621 -58.15087769 165.51836243 -57.7255249 164.28823853 C-56.6007004 161.03543331 -55.46820076 157.78534816 -54.33434296 154.53568268 C-53.13697981 151.0994726 -51.94697521 147.66071641 -50.75634766 144.22216797 C-48.79471381 138.55937159 -46.82932419 132.89789293 -44.86132812 127.23730469 C-41.06688711 116.32165352 -37.29950985 105.3966771 -33.53048706 94.472229 C-32.37514815 91.12542917 -31.2182682 87.77916635 -30.06079102 84.43310547 C-26.38404908 73.80405701 -22.71320313 63.17306167 -19.06207275 52.53518677 C-17.31829453 47.45460726 -15.57098979 42.37524158 -13.8237915 37.2958374 C-12.99221773 34.87564185 -12.16206574 32.45495724 -11.33343506 30.03375244 C-10.18556643 26.68009257 -9.0327493 23.32817069 -7.87890625 19.9765625 C-7.37704048 18.50382874 -7.37704048 18.50382874 -6.86503601 17.00134277 C-6.54549454 16.07615845 -6.22595306 15.15097412 -5.89672852 14.19775391 C-5.62538589 13.40656158 -5.35404327 12.61536926 -5.07447815 11.80020142 C-3.54058181 7.80270859 -1.7389551 3.91264898 0 0 Z " fill="#010101" transform="translate(2494,340)"/>
<path d="M0 0 C1.31742188 0.01353516 2.63484375 0.02707031 3.9921875 0.04101562 C22.79844625 0.44174364 38.17897502 5.9986634 51.88671875 19.16796875 C65.88682327 34.17346677 70.27649005 52.69221567 70.375 72.625 C70.38345947 74.25163574 70.38345947 74.25163574 70.39208984 75.91113281 C70.22399526 94.70923506 65.06680679 113.4247503 52.0625 127.5 C37.02443265 141.94516864 18.18334802 147.15099892 -2.16357422 146.89819336 C-21.20226622 146.34619463 -37.60339852 140.4739336 -50.9375 126.5 C-51.49566406 125.96117187 -52.05382813 125.42234375 -52.62890625 124.8671875 C-65.56315849 111.42637185 -69.31843519 90.7992415 -69.1875 72.9375 C-69.19523437 71.87853516 -69.20296875 70.81957031 -69.2109375 69.72851562 C-69.16280866 50.20023986 -62.33806414 31.98633215 -49.1328125 17.5234375 C-35.47221557 4.68364897 -18.42867459 -0.27463081 0 0 Z " fill="#020202" transform="translate(1983.9375,383.5)"/>
<path d="M0 0 C14.23202352 11.92798533 21.06449664 26.9752795 24 45 C24.36419788 49.92709569 24.37768233 54.81178641 24.3125 59.75 C24.31572266 60.98621094 24.31894531 62.22242188 24.32226562 63.49609375 C24.20763446 83.1084433 18.13689655 101.20942786 4.51953125 115.6171875 C-4.93397708 124.55771476 -15.71167113 128.5536937 -28 132 C-28.62608154 132.18336914 -29.25216309 132.36673828 -29.8972168 132.55566406 C-48.4340121 136.47264623 -68.94441369 132.62409784 -85 123 C-99.79429451 113.23106902 -109.00549211 98.43963469 -112.9699707 81.27807617 C-114.32944398 74.01645982 -114.38501492 66.68056118 -114.4375 59.3125 C-114.4478125 58.11343018 -114.458125 56.91436035 -114.46875 55.67895508 C-114.26531381 35.04572249 -107.801955 18.16597896 -93.625 3.1875 C-85.31112418 -4.75812919 -75.86599457 -8.58423658 -65 -12 C-64.25363281 -12.24878906 -63.50726562 -12.49757813 -62.73828125 -12.75390625 C-41.93729871 -18.59779722 -17.17631295 -12.07047745 0 0 Z " fill="#010101" transform="translate(2194,397)"/>
<path d="M0 0 C13.51669254 10.98057085 19.70426897 23.78623591 21.5625 41 C21.83785691 45.90023583 21.8879886 50.78040557 21.875 55.6875 C21.89111328 56.94755859 21.90722656 58.20761719 21.92382812 59.50585938 C21.92447266 60.70404297 21.92511719 61.90222656 21.92578125 63.13671875 C21.92876221 64.21655029 21.93174316 65.29638184 21.93481445 66.40893555 C21.81195068 67.26398682 21.68908691 68.11903809 21.5625 69 C17.6584485 71.602701 14.39449201 71.26578882 9.8684082 71.22705078 C8.9803952 71.22734283 8.0923822 71.22763489 7.17745972 71.22793579 C4.23930118 71.22654132 1.30139554 71.21097457 -1.63671875 71.1953125 C-3.67267213 71.19158279 -5.70862731 71.18873562 -7.74458313 71.18673706 C-13.10565132 71.17909733 -18.46661131 71.15944587 -23.82763672 71.1373291 C-29.29718563 71.11687803 -34.76675201 71.10773692 -40.23632812 71.09765625 C-50.97009965 71.07620034 -61.70379083 71.04206025 -72.4375 71 C-71.83275677 73.55139018 -71.2196126 76.10026787 -70.6015625 78.6484375 C-70.34838257 79.72242798 -70.34838257 79.72242798 -70.09008789 80.81811523 C-68.01197425 89.32037409 -65.04737147 95.72383442 -57.4375 100.5 C-47.59039946 105.92852978 -36.80849804 106.43506156 -25.90625 104.3125 C-17.94162351 101.89897682 -12.23122174 98.37224831 -8 91.125 C-7.484375 90.09375 -6.96875 89.0625 -6.4375 88 C-2.61696445 87.75561518 -0.57388218 88.16184933 2.59375 90.30078125 C3.32207031 90.78353516 4.05039063 91.26628906 4.80078125 91.76367188 C5.54714844 92.27478516 6.29351563 92.78589844 7.0625 93.3125 C8.55170403 94.30916073 10.04127799 95.30526898 11.53125 96.30078125 C12.22605469 96.7695166 12.92085937 97.23825195 13.63671875 97.72119141 C15.90123207 99.2249339 18.21261385 100.63389555 20.5625 102 C15.78565864 114.7086198 5.88596055 125.32234707 -6.4375 131 C-24.70077243 138.78299546 -47.87522283 139.07798968 -66.4375 132 C-82.46712404 125.50790673 -94.94112172 115.87272732 -101.90722656 99.58642578 C-106.87941839 87.48576619 -108.9855499 75.7733004 -108.875 62.6875 C-108.86670166 61.41511475 -108.85840332 60.14272949 -108.84985352 58.83178711 C-108.49434266 39.01553625 -102.49580207 21.19129805 -88.3125 6.8515625 C-83.43556787 2.29637242 -78.42692666 -1.08905487 -72.4375 -4 C-71.74140625 -4.35835938 -71.0453125 -4.71671875 -70.328125 -5.0859375 C-49.32346117 -15.28163199 -19.10556622 -13.8657934 0 0 Z " fill="#020202" transform="translate(1698.4375,394)"/>
<path d="M0 0 C8.71855476 7.45109966 13.2508415 14.73977183 15.34765625 26.0234375 C15.77465379 31.72103312 15.78869959 37.3983372 15.7890625 43.109375 C15.80085853 44.74078542 15.81422813 46.37218515 15.8290863 48.00357056 C15.86501478 52.26600348 15.88540206 56.52834141 15.90063477 60.79089355 C15.92561772 67.63269962 15.96521199 74.47429622 16.02253532 81.31590652 C16.03880162 83.6962 16.04263455 86.07629246 16.04554749 88.45663452 C16.05532397 89.91689399 16.06558728 91.3771503 16.07641602 92.83740234 C16.0828286 94.74288345 16.0828286 94.74288345 16.08937073 96.68685913 C16.42884445 101.07224109 17.22200407 103.89778532 20.34765625 107.0234375 C23.24648708 107.26683301 23.24648708 107.26683301 26.47265625 107.1484375 C27.56835938 107.13039063 28.6640625 107.11234375 29.79296875 107.09375 C30.63601563 107.07054687 31.4790625 107.04734375 32.34765625 107.0234375 C33.55752168 115.73014762 34.64616243 124.21162901 34.34765625 133.0234375 C27.57734822 135.7698536 21.55784663 136.51592004 14.28515625 136.4609375 C13.34349609 136.48091797 12.40183594 136.50089844 11.43164062 136.52148438 C3.70095825 136.51610464 -1.54847737 134.70404938 -7.40234375 129.6484375 C-11.06413299 125.37635006 -13.98117722 121.72835304 -14.65234375 116.0234375 C-18.24694297 117.22163724 -18.51842071 118.05166206 -20.40234375 121.2109375 C-26.02168981 129.85924815 -32.8377512 133.88126565 -42.65234375 137.0234375 C-57.45712394 139.76570628 -72.02137959 139.10696125 -84.96484375 130.8984375 C-93.47012012 124.46828474 -98.71844176 115.47571732 -100.65234375 105.0234375 C-100.95046831 101.79187979 -101.05733329 98.58035525 -101.08984375 95.3359375 C-101.10007568 94.55226807 -101.11030762 93.76859863 -101.12084961 92.96118164 C-100.98006224 83.58749959 -98.07017725 75.87566585 -91.65234375 69.0234375 C-80.44916215 58.70019928 -67.03128061 54.52546232 -52.32421875 51.83984375 C-51.18726563 51.63166016 -50.0503125 51.42347656 -48.87890625 51.20898438 C-46.61085471 50.80251896 -44.3400276 50.41116535 -42.06640625 50.03710938 C-34.23445448 48.65472271 -26.16592697 46.74370209 -20.52734375 40.7734375 C-19.25447042 36.77297847 -18.99556012 33.17551791 -19.65234375 29.0234375 C-21.80496393 24.89758215 -24.63087579 22.96578959 -29.06640625 21.53125 C-43.04941658 18.78534163 -55.92891876 22.39363849 -68.078125 29.29296875 C-71.64716871 31.69218933 -74.66643543 34.5237212 -77.6796875 37.58203125 C-79.65234375 39.0234375 -79.65234375 39.0234375 -81.55981445 38.90673828 C-84.48056973 37.67382583 -85.39330297 35.97954685 -87.10546875 33.33203125 C-88.03359375 31.91567383 -88.03359375 31.91567383 -88.98046875 30.47070312 C-89.6146875 29.47748047 -90.24890625 28.48425781 -90.90234375 27.4609375 C-91.55203125 26.46384766 -92.20171875 25.46675781 -92.87109375 24.43945312 C-94.47539623 21.97401769 -96.06851106 19.50205337 -97.65234375 17.0234375 C-87.47036635 4.2965333 -73.26007411 -2.96171225 -57.65234375 -6.9765625 C-56.93304687 -7.1828125 -56.21375 -7.3890625 -55.47265625 -7.6015625 C-38.86003226 -11.74034771 -14.0776936 -10.49088802 0 0 Z " fill="#020202" transform="translate(1393.65234375,391.9765625)"/>
<path d="M0 0 C47.85 0 95.7 0 145 0 C145 10.23 145 20.46 145 31 C127.18 31 109.36 31 91 31 C91 82.81 91 134.62 91 188 C78.79 188 66.58 188 54 188 C54 136.19 54 84.38 54 31 C36.18 31 18.36 31 0 31 C0 20.77 0 10.54 0 0 Z " fill="#020202" transform="translate(1037,340)"/>
<path d="M0 0 C0.70804779 0.00176239 1.41609558 0.00352478 2.14559937 0.00534058 C19.61179983 0.10241756 33.80778234 3.64870221 47.125 15.75 C51.05503509 19.95666378 54.44850073 25.04174204 56.3125 30.5 C55.0845252 33.97177254 53.24964297 35.5734615 50.28515625 37.6640625 C49.49302734 38.22867188 48.70089844 38.79328125 47.88476562 39.375 C47.05654297 39.9525 46.22832031 40.53 45.375 41.125 C44.1384668 42.00285156 44.1384668 42.00285156 42.87695312 42.8984375 C33.55754551 49.5 33.55754551 49.5 29.3125 49.5 C27.63671875 47.26953125 27.63671875 47.26953125 26 44.3125 C21.73373436 37.22028918 17.42837917 33.69785239 9.3125 31.5 C0.07806721 30.4794408 -10.77502618 30.06383743 -18.6875 35.5 C-26.44776931 42.16135005 -30.47147212 50.41614618 -31.6875 60.5 C-31.85341568 64.41747435 -31.87259177 68.32940818 -31.875 72.25 C-31.89336914 73.80074219 -31.89336914 73.80074219 -31.91210938 75.3828125 C-31.9336654 86.79313648 -30.56865516 98.1171855 -22.53515625 106.8359375 C-16.3054702 112.57844344 -11.16443306 114.84085331 -2.6875 115.5 C-1.98496094 115.56574219 -1.28242187 115.63148438 -0.55859375 115.69921875 C7.00127695 116.0914124 14.6152191 113.8549431 20.6875 109.25 C25.39529109 104.31802839 28.49574119 99.10639567 30.3125 92.5 C37.33607739 92.8019846 42.31414039 96.01234473 48.25 99.5625 C49.22001953 100.13033203 50.19003906 100.69816406 51.18945312 101.28320312 C53.57000822 102.67870094 55.94385386 104.08441481 58.3125 105.5 C56.7912191 117.30304143 49.95102943 126.78968973 41.10546875 134.3984375 C25.08761783 146.56456639 5.33654295 148.55531732 -14.17480469 146.19970703 C-32.34761394 143.06715208 -47.42377585 133.33617097 -58.15625 118.46484375 C-67.06103656 104.80902778 -70.08752852 89.42210695 -70.0625 73.3125 C-70.06088867 72.22187256 -70.05927734 71.13124512 -70.05761719 70.00756836 C-69.92102917 60.94522148 -68.61808273 53.07879928 -65.6875 44.5 C-65.38714844 43.57445312 -65.08679687 42.64890625 -64.77734375 41.6953125 C-58.56992372 24.44352176 -46.51859973 13.09462811 -30.47265625 5.04296875 C-20.48900611 0.7418579 -10.75511418 -0.07131519 0 0 Z " fill="#020202" transform="translate(1513.6875,383.5)"/>
<path d="M0 0 C0 10.89 0 21.78 0 33 C13.2 33 26.4 33 40 33 C40 42.24 40 51.48 40 61 C26.8 61 13.6 61 0 61 C0.12005635 72.8907468 0.12005635 72.8907468 0.2578125 84.78125 C0.31797217 89.6353759 0.3761192 94.48946417 0.421875 99.34375 C0.45892147 103.26016545 0.50533216 107.17637103 0.55806351 111.09260559 C0.57650513 112.5819783 0.59165029 114.07139582 0.60334396 115.56083679 C0.37307613 128.83177003 0.37307613 128.83177003 5 141 C9.58231535 144.63889749 14.67217777 145.61862305 20.40625 145.40625 C24.14194428 144.82114126 27.36330259 143.47454211 30.7734375 141.875 C33 141 33 141 37 141 C37.95972174 143.54115002 38.91781494 146.08289457 39.875 148.625 C40.14441406 149.33785156 40.41382812 150.05070313 40.69140625 150.78515625 C45.87828886 164.57467344 45.87828886 164.57467344 45 168 C34.63418366 177.49260898 18.32773777 177.60030653 5.13183594 177.13623047 C-6.86056952 176.36988115 -16.98070621 172.03067173 -25.21484375 163.2890625 C-34.96831524 150.78242291 -35.44010937 135.0910896 -35.29296875 119.984375 C-35.28736067 118.27517065 -35.28309631 116.56596142 -35.28010559 114.85675049 C-35.26875211 110.3982773 -35.23936893 105.94010594 -35.20599365 101.48175049 C-35.17508578 96.91626058 -35.16155636 92.35072103 -35.14648438 87.78515625 C-35.11448822 78.85661814 -35.06180017 69.9283816 -35 61 C-42.26 61 -49.52 61 -57 61 C-57 51.76 -57 42.52 -57 33 C-49.74 33 -42.48 33 -35 33 C-35 23.76 -35 14.52 -35 5 C-10.90909091 0 -10.90909091 0 0 0 Z " fill="#010101" transform="translate(2292,353)"/>
<path d="M0 0 C12.21 0 24.42 0 37 0 C37 62.04 37 124.08 37 188 C24.79 188 12.58 188 0 188 C0 125.96 0 63.92 0 0 Z " fill="#030303" transform="translate(2633,340)"/>
<path d="M0 0 C0.77730469 -0.020625 1.55460937 -0.04125 2.35546875 -0.0625 C7.70629707 -0.09847196 11.34703412 0.82916396 16.125 3.25 C15.5431676 10.39711654 14.45965406 17.34479725 13.0625 24.375 C12.87623047 25.33148438 12.68996094 26.28796875 12.49804688 27.2734375 C12.04440944 29.59978331 11.58667962 31.92523936 11.125 34.25 C6.98109455 35.27168703 4.41218287 34.86948258 0.2890625 33.7421875 C-7.69757793 31.92573137 -16.1731462 33.29079131 -23.109375 37.65625 C-31.35802968 44.23036576 -34.51477582 53.0786515 -35.875 63.25 C-36.20490111 69.40773782 -36.24784331 75.56116369 -36.2890625 81.7265625 C-36.30780126 83.50589875 -36.32737663 85.28522637 -36.3477478 87.06454468 C-36.39878916 91.71684651 -36.4385636 96.36917707 -36.47589111 101.02160645 C-36.52319531 106.62026781 -36.58467172 112.21878978 -36.64373779 117.81733704 C-36.7316082 126.29483422 -36.8016168 134.77230933 -36.875 143.25 C-48.755 143.25 -60.635 143.25 -72.875 143.25 C-72.875 96.39 -72.875 49.53 -72.875 1.25 C-61.325 1.25 -49.775 1.25 -37.875 1.25 C-37.875 8.18 -37.875 15.11 -37.875 22.25 C-34.13317377 21.00272459 -33.98007255 20.02523791 -32.1875 16.625 C-27.78768224 9.01244402 -22.20550255 4.07922728 -13.875 1.25 C-9.26523569 0.06200266 -4.73049478 0.03107057 0 0 Z " fill="#030303" transform="translate(1266.875,384.75)"/>
<path d="M0 0 C8.40982859 6.4569845 12.31360784 16.43727363 13.8984375 26.6640625 C15.32230779 42.4979728 14.61877818 58.43257215 4.8984375 71.6640625 C-1.01329148 78.31153068 -7.26855425 81.11625352 -16.0546875 81.94140625 C-25.71544198 82.25104582 -33.00635791 80.81094651 -40.4765625 74.4765625 C-44.54322225 70.51809245 -47.27719019 67.03099903 -49.1015625 61.6640625 C-49.39675781 60.88546875 -49.69195313 60.106875 -49.99609375 59.3046875 C-54.51660025 45.02071261 -54.28958505 25.46861684 -47.77734375 11.90625 C-43.81634443 4.77437195 -38.41649533 -1.16565032 -30.46484375 -3.8984375 C-20.45221313 -5.7520154 -8.72021475 -5.54333354 0 0 Z " fill="#FCFCFC" transform="translate(2168.1015625,418.3359375)"/>
<path d="M0 0 C5.17165788 3.77123027 8.17247135 7.81468157 10.64453125 13.7109375 C11.03620483 14.59519409 11.03620483 14.59519409 11.43579102 15.49731445 C14.25215789 22.64604114 14.05324352 29.68036514 13.95703125 37.2734375 C13.96025391 38.54896484 13.96347656 39.82449219 13.96679688 41.13867188 C13.89402223 53.8874657 11.59919395 65.34743173 2.7109375 74.984375 C-4.79383798 81.25490574 -14.95630421 82.40809407 -24.35546875 81.7109375 C-32.27328038 80.17041907 -39.00928163 77.16953087 -44.125 70.6796875 C-53.01591778 56.45421905 -53.768978 36.65704204 -50.70703125 20.46484375 C-48.07812113 11.10637309 -43.5402285 3.12788001 -35.04296875 -1.9140625 C-23.85334744 -6.89506669 -10.61422857 -5.8087818 0 0 Z " fill="#FDFDFD" transform="translate(2003.35546875,418.2890625)"/>
<path d="M0 0 C6.5486432 5.40616408 11.89674374 11.18892772 13.171875 19.79296875 C13.89513036 28.71922166 14.18523825 36.99960968 9.171875 44.79296875 C8.74777344 45.48777344 8.32367187 46.18257812 7.88671875 46.8984375 C3.04357523 54.08895421 -4.00705536 58.88485739 -12.3125 61.32421875 C-21.72876762 63.07880278 -31.13281591 62.53138071 -39.23828125 57.2109375 C-46.62065438 51.70116634 -50.3148181 46.18861764 -53.828125 37.79296875 C-54.158125 37.13296875 -54.488125 36.47296875 -54.828125 35.79296875 C-55.61764761 23.87247165 -55.35354047 15.01996381 -47.453125 5.54296875 C-34.27557621 -8.52986998 -16.2039776 -11.63583498 0 0 Z " fill="#020202" transform="translate(506.828125,546.20703125)"/>
<path d="M0 0 C8.24397275 5.04733025 15.67250957 12.37970621 18 22 C19.62375471 34.30635146 18.05103633 44.04973329 10.39453125 54.109375 C4.49922008 60.66283254 -3.75884131 64.53372575 -12.46875 65.30859375 C-23.71506651 65.79950994 -32.21104887 63.55741419 -40.875 55.875 C-48.68826136 47.02508971 -51.24316004 37.91925305 -50.578125 26.3515625 C-49.63958833 17.28561375 -44.93678141 9.73393276 -38.23828125 3.69140625 C-27.64957894 -4.31017856 -12.05297595 -6.42503327 0 0 Z " fill="#020202" transform="translate(502,396)"/>
<path d="M0 0 C1.03125 0.5775 2.0625 1.155 3.125 1.75 C9.50929396 6.74640397 15.11142919 12.95401784 17 21 C18.27557384 31.8521468 17.62892194 41.60812815 11.08203125 50.6484375 C5.40685518 57.49882702 -0.63373073 61.21124358 -9 64 C-20.91613248 64.76837641 -29.72034893 64.50850754 -39.25 56.6875 C-45.60228973 50.76458969 -50.85847225 43.64591749 -51.46875 34.73046875 C-51.5030946 33.21649951 -51.51283445 31.70180436 -51.5 30.1875 C-51.49355469 29.39287354 -51.48710938 28.59824707 -51.48046875 27.77954102 C-51.2759428 21.19636212 -49.96362065 16.36197829 -46 11 C-45.41863281 10.20078125 -44.83726562 9.4015625 -44.23828125 8.578125 C-33.76198654 -4.42693051 -14.6127579 -8.89740862 0 0 Z " fill="#020202" transform="translate(613,250)"/>
<path d="M0 0 C0.78181641 -0.020625 1.56363281 -0.04125 2.36914062 -0.0625 C11.23477916 -0.12175239 18.452375 3.54830688 25.1875 9.25 C31.62307632 16.87011314 34.54084527 23.16977638 34.5 33.0625 C34.51611328 33.83142578 34.53222656 34.60035156 34.54882812 35.39257812 C34.55653163 44.52122745 31.34741398 51.56407089 25.1875 58.25 C16.48006044 65.94939267 8.21602938 68.68921452 -3.3203125 68.59765625 C-11.44160858 67.78916033 -19.17125478 64.15362872 -24.8125 58.25 C-32.61289765 48.37943312 -34.96693213 39.82198334 -34.09814453 27.359375 C-32.94446916 18.83992613 -27.43157417 11.45367466 -20.8125 6.25 C-13.78026675 1.19681926 -8.54458307 0.05552938 0 0 Z " fill="#020202" transform="translate(705.8125,539.75)"/>
<path d="M0 0 C7.44580912 5.27832623 13.29532841 11.48749239 15.16015625 20.6328125 C16.85106854 33.23779501 15.77033454 42.67047156 7.984375 52.95703125 C2.46136804 59.05726459 -5.79026251 63.43879756 -14 64.14453125 C-24.96362575 64.59241458 -33.13281045 63.25251013 -41.74609375 55.8203125 C-48.93007776 48.39597214 -52.66155169 40.5694607 -52.91015625 30.2109375 C-52.48972281 19.55995707 -49.75318816 12.63423739 -42.41015625 4.8359375 C-30.69026127 -5.92292609 -13.86371754 -8.10143165 0 0 Z " fill="#020202" transform="translate(724.41015625,397.1640625)"/>
<path d="M0 0 C5.8575 -0.061875 11.715 -0.12375 17.75 -0.1875 C20.48361816 -0.22846802 20.48361816 -0.22846802 23.27246094 -0.27026367 C45.91667476 -0.4684894 45.91667476 -0.4684894 54.6015625 6.54296875 C60.91243029 13.11825837 61.41617775 20.67852269 61.34375 29.37890625 C60.72163958 35.93227402 58.05221812 41.40356222 53.25 45.9375 C46.19681519 50.41355959 39.3844851 51.44352056 31.15234375 51.29296875 C30.35542114 51.28994751 29.55849854 51.28692627 28.73742676 51.28381348 C25.80398318 51.26829853 22.87072645 51.22641682 19.9375 51.1875 C13.358125 51.125625 6.77875 51.06375 0 51 C0 34.17 0 17.34 0 0 Z " fill="#FBFBFB" transform="translate(1792,369)"/>
<path d="M0 0 C1.32 0 2.64 0 4 0 C4.50769348 1.52308044 5.0153854 3.04616141 5.52307129 4.56924438 C5.98618177 5.95855505 6.44931754 7.34785729 6.91247559 8.7371521 C8.23031647 12.69029773 9.5476881 16.64359879 10.86425781 20.59716797 C13.43957533 28.32910963 16.01787245 36.05999052 18.61236572 43.78552246 C19.72559887 47.10086423 20.83669361 50.41692086 21.94763184 53.73303223 C22.48244654 55.32738702 23.01833506 56.92138202 23.55529785 58.51501465 C24.30518 60.74088862 25.05141797 62.96795336 25.796875 65.1953125 C26.02129272 65.8582431 26.24571045 66.52117371 26.47692871 67.20419312 C28 71.77226764 28 71.77226764 28 74 C10.84 74 -6.32 74 -24 74 C-11.85846496 35.22987105 -11.85846496 35.22987105 -6.53515625 20.21630859 C-4.16521703 13.52987601 -1.98729686 6.81172147 0 0 Z " fill="#FAFAFA" transform="translate(2515,379)"/>
<path d="M0 0 C0.98554289 26.97355072 0.98554289 26.97355072 -7.125 37.5 C-13.33116559 43.78472465 -20.03781138 45.22676206 -28.6875 45.5 C-34.72959129 45.31118465 -38.40538485 44.9819998 -43 41 C-44.64029047 38.7198439 -45.76977007 36.55509294 -47 34 C-47.33 33.34 -47.66 32.68 -48 32 C-48.64943389 25.05605299 -48.14648624 20.09248864 -43.8046875 14.4453125 C-38.55156322 8.91715554 -31.24521298 8.02400873 -24.10302734 6.4765625 C-20.78287512 5.72418995 -17.5248819 4.80579193 -14.25 3.875 C-13.14140625 3.56304687 -12.0328125 3.25109375 -10.890625 2.9296875 C-8.06553987 2.11093281 -8.06553987 2.11093281 -5.859375 0.8828125 C-4 0 -4 0 0 0 Z " fill="#FAFAFA" transform="translate(1376,458)"/>
<path d="M0 0 C5.13210692 3.0946825 9.22027573 7.89953967 11.5 13.4375 C12.51609677 21.19678446 11.20850819 27.90823175 6.4375 34.125 C1.03165434 38.38066573 -5.20249681 42.38304901 -12.359375 41.859375 C-19.46854943 40.45829683 -25.98474373 38.36377385 -30.5 32.4375 C-34.32330037 25.87791603 -34.40761452 19.86806373 -33.5 12.4375 C-31.25968835 6.42645805 -27.03793325 2.14760434 -21.26953125 -0.640625 C-14.77343096 -2.80293765 -6.30308277 -2.84065432 0 0 Z " fill="#030303" transform="translate(2395.5,487.5625)"/>
<path d="M0 0 C6.59262096 4.31055986 10.11793026 10.47172104 12 18 C12 21.3 12 24.6 12 28 C-7.47 28 -26.94 28 -47 28 C-45.81004598 18.48036787 -43.04948059 8.72185131 -35.11328125 2.52734375 C-24.75277598 -4.24151969 -11.26040155 -5.74652724 0 0 Z " fill="#F9F9F9" transform="translate(1674,414)"/>
</svg>
