<?xml version="1.0" encoding="UTF-8" standalone="no"?>
<!DOCTYPE svg PUBLIC "-//W3C//DTD SVG 1.1//EN" "http://www.w3.org/Graphics/SVG/1.1/DTD/svg11.dtd">
<svg xmlns="http://www.w3.org/2000/svg" version="1.1" viewBox="0.00 0.00 1024.00 196.00">
<g stroke-width="2.00" fill="none" stroke-linecap="butt">
<path stroke="#7fb393" vector-effect="non-scaling-stroke" d="
  M 748.25 105.39
  C 751.42 105.42 755.59 106.26 755.63 102.71
  Q 755.71 95.48 755.71 95.00
  C 755.75 91.46 751.92 92.50 749.60 92.22
  A 0.64 0.64 0.0 0 1 749.07 91.40
  L 749.50 89.96
  A 0.75 0.72 41.1 0 0 749.45 89.43
  Q 749.10 88.74 748.39 88.73
  Q 747.68 88.72 747.32 89.41
  A 0.75 0.72 -40.1 0 0 747.27 89.94
  L 747.67 91.39
  A 0.64 0.64 0.0 0 1 747.13 92.20
  C 744.80 92.44 740.99 91.33 740.97 94.87
  Q 740.96 95.35 740.92 102.58
  C 740.90 106.13 745.08 105.36 748.25 105.39"
/>
<path stroke="#7fb393" vector-effect="non-scaling-stroke" d="
  M 785.03 96.19
  L 785.03 104.47
  A 0.90 0.90 0.0 0 1 784.13 105.37
  L 772.31 105.37
  A 0.45 0.45 0.0 0 0 771.86 105.82
  L 771.86 106.09
  A 0.84 0.84 0.0 0 0 772.70 106.93
  L 784.26 106.93
  A 2.30 2.30 0.0 0 0 786.56 104.63
  L 786.56 94.14
  A 1.47 1.47 0.0 0 0 786.13 93.10
  L 782.76 89.73
  A 2.19 2.17 67.3 0 0 781.22 89.09
  L 774.17 89.09
  A 2.41 2.41 0.0 0 0 771.76 91.50
  L 771.76 94.76
  A 0.63 0.62 -0.0 0 0 772.39 95.38
  L 772.87 95.38
  A 0.71 0.71 0.0 0 0 773.58 94.67
  L 773.58 91.58
  A 0.97 0.97 0.0 0 1 774.55 90.61
  L 779.17 90.61
  A 0.95 0.95 0.0 0 1 780.11 91.68
  Q 779.54 96.08 784.22 95.48
  A 0.72 0.71 86.1 0 1 785.03 96.19"
/>
<path stroke="#7fb393" vector-effect="non-scaling-stroke" d="
  M 816.97 90.01
  A 1.88 1.88 0.0 0 0 814.19 89.27
  L 801.29 98.21
  A 1.88 1.88 0.0 0 0 800.66 100.56
  L 801.25 101.83
  A 1.88 1.88 0.0 0 0 803.75 102.73
  L 817.77 96.14
  A 1.88 1.88 0.0 0 0 818.67 93.64
  L 816.97 90.01"
/>
<path stroke="#7fb393" vector-effect="non-scaling-stroke" d="
  M 221.3904 90.8319
  A 0.99 0.99 0.0 0 0 220.4374 89.8063
  L 219.5979 89.7755
  A 0.99 0.99 0.0 0 0 218.5723 90.7285
  L 218.5496 91.3481
  A 0.99 0.99 0.0 0 0 219.5026 92.3737
  L 220.3421 92.4045
  A 0.99 0.99 0.0 0 0 221.3677 91.4515
  L 221.3904 90.8319"
/>
<path stroke="#7fb393" vector-effect="non-scaling-stroke" d="
  M 413.5495 90.8178
  A 1.02 1.02 0.0 0 0 412.6070 89.7258
  L 411.7293 89.6614
  A 1.02 1.02 0.0 0 0 410.6374 90.6039
  L 410.5905 91.2422
  A 1.02 1.02 0.0 0 0 411.5330 92.3342
  L 412.4107 92.3986
  A 1.02 1.02 0.0 0 0 413.5026 91.4561
  L 413.5495 90.8178"
/>
<path stroke="#7fb393" vector-effect="non-scaling-stroke" d="
  M 593.75 91.02
  A 1.47 1.47 0.0 0 0 592.28 89.55
  A 1.47 1.47 0.0 0 0 590.81 91.02
  A 1.47 1.47 0.0 0 0 592.28 92.49
  A 1.47 1.47 0.0 0 0 593.75 91.02"
/>
<path stroke="#7fb393" vector-effect="non-scaling-stroke" d="
  M 244.45 104.78
  Q 244.45 104.91 244.46 105.00
  A 0.80 0.79 -82.7 0 0 244.99 105.69
  Q 246.60 106.24 246.87 105.38
  A 0.76 0.70 -42.6 0 0 246.88 105.26
  L 246.88 90.72
  A 0.63 0.63 0.0 0 0 246.25 90.09
  L 245.03 90.09
  A 0.63 0.63 0.0 0 0 244.40 90.72
  L 244.40 95.00
  A 0.27 0.27 0.0 0 1 243.93 95.17
  Q 242.79 93.80 240.13 94.08
  C 234.60 94.65 234.74 104.49 240.17 105.94
  C 241.80 106.38 242.81 105.65 243.97 104.57
  A 0.29 0.29 0.0 0 1 244.45 104.78"
/>
<path stroke="#7fb393" vector-effect="non-scaling-stroke" d="
  M 264.73 94.85
  L 264.73 90.72
  A 0.63 0.62 90.0 0 0 264.11 90.09
  L 262.95 90.09
  A 0.60 0.59 -90.0 0 0 262.36 90.69
  L 262.36 105.16
  A 0.64 0.64 0.0 0 0 263.00 105.80
  L 264.16 105.80
  A 0.61 0.61 0.0 0 0 264.77 105.19
  L 264.80 98.55
  A 2.34 2.34 0.0 0 1 267.13 96.22
  L 267.38 96.20
  A 2.21 2.21 0.0 0 1 269.74 98.40
  L 269.74 105.17
  A 0.64 0.63 90.0 0 0 270.37 105.81
  L 271.53 105.81
  A 0.63 0.62 -89.5 0 0 272.15 105.19
  Q 272.24 100.45 271.99 97.16
  C 271.71 93.53 267.53 93.37 265.24 95.10
  A 0.32 0.32 0.0 0 1 264.73 94.85"
/>
<path stroke="#7fb393" vector-effect="non-scaling-stroke" d="
  M 304.47 105.24
  L 301.93 99.83
  A 0.48 0.46 -29.8 0 1 302.10 99.24
  C 305.40 97.06 305.04 91.75 300.92 90.47
  Q 299.38 89.99 293.82 90.16
  A 0.65 0.65 0.0 0 0 293.19 90.81
  L 293.19 105.22
  A 0.57 0.57 0.0 0 0 293.76 105.79
  L 295.23 105.79
  A 0.57 0.57 0.0 0 0 295.80 105.22
  L 295.80 100.37
  A 0.56 0.56 0.0 0 1 296.36 99.81
  L 298.53 99.81
  A 0.77 0.76 77.0 0 1 299.22 100.25
  L 301.57 105.25
  A 0.97 0.97 0.0 0 0 302.45 105.81
  L 304.11 105.81
  A 0.40 0.40 0.0 0 0 304.47 105.24"
/>
<path stroke="#7fb393" vector-effect="non-scaling-stroke" d="
  M 433.95 97.95
  C 433.94 106.27 444.64 109.35 447.43 101.35
  A 0.55 0.55 0.0 0 0 446.91 100.62
  L 445.61 100.62
  A 1.02 1.01 -76.8 0 0 444.70 101.19
  Q 443.24 104.16 439.95 103.43
  C 437.64 102.91 436.59 100.03 436.59 97.95
  C 436.60 95.87 437.65 92.99 439.96 92.48
  Q 443.25 91.75 444.71 94.73
  A 1.02 1.01 76.9 0 0 445.62 95.30
  L 446.92 95.30
  A 0.55 0.55 0.0 0 0 447.44 94.57
  C 444.66 86.56 433.96 89.62 433.95 97.95"
/>
<path stroke="#7fb393" vector-effect="non-scaling-stroke" d="
  M 470.38 104.79
  Q 470.38 104.92 470.39 105.01
  A 0.80 0.79 -82.5 0 0 470.92 105.71
  Q 472.53 106.26 472.80 105.40
  A 0.76 0.70 -42.4 0 0 472.81 105.28
  L 472.86 90.73
  A 0.63 0.63 0.0 0 0 472.23 90.09
  L 471.00 90.09
  A 0.63 0.63 0.0 0 0 470.37 90.72
  L 470.36 95.00
  A 0.27 0.27 0.0 0 1 469.89 95.17
  Q 468.75 93.80 466.09 94.07
  C 460.55 94.62 460.66 104.47 466.09 105.94
  C 467.72 106.39 468.73 105.66 469.90 104.58
  A 0.29 0.29 0.0 0 1 470.38 104.79"
/>
<path stroke="#7fb393" vector-effect="non-scaling-stroke" d="
  M 490.5261 90.5939
  A 0.49 0.49 0.0 0 0 490.0335 90.1065
  L 488.6736 90.1136
  A 0.49 0.49 0.0 0 0 488.1861 90.6062
  L 488.2139 95.9061
  A 0.49 0.49 0.0 0 0 488.7065 96.3935
  L 490.0664 96.3864
  A 0.49 0.49 0.0 0 0 490.5539 95.8938
  L 490.5261 90.5939"
/>
<path stroke="#7fb393" vector-effect="non-scaling-stroke" d="
  M 516.56 105.79
  Q 517.15 105.79 517.36 105.77
  A 0.52 0.51 -4.3 0 0 517.80 105.26
  L 517.80 92.90
  A 0.52 0.51 -90.0 0 1 518.31 92.38
  L 521.99 92.38
  A 0.56 0.55 0.0 0 0 522.55 91.83
  L 522.55 90.79
  A 0.67 0.66 -0.2 0 0 521.87 90.13
  Q 519.36 90.16 516.54 90.15
  Q 513.73 90.17 511.22 90.13
  A 0.67 0.66 0.1 0 0 510.54 90.80
  L 510.54 91.84
  A 0.56 0.55 -0.1 0 0 511.10 92.39
  L 514.78 92.38
  A 0.52 0.51 89.9 0 1 515.29 92.90
  L 515.31 105.26
  A 0.52 0.51 4.2 0 0 515.76 105.77
  Q 515.96 105.80 516.56 105.79"
/>
<path stroke="#7fb393" vector-effect="non-scaling-stroke" d="
  M 606.05 94.87
  L 606.04 90.74
  A 0.63 0.62 89.9 0 0 605.42 90.11
  L 604.26 90.12
  A 0.60 0.59 89.9 0 0 603.67 90.72
  L 603.70 105.18
  A 0.64 0.64 0.0 0 0 604.34 105.81
  L 605.50 105.81
  A 0.61 0.61 0.0 0 0 606.10 105.20
  L 606.12 98.57
  A 2.34 2.34 0.0 0 1 608.45 96.24
  L 608.70 96.22
  A 2.21 2.20 -2.0 0 1 611.06 98.41
  L 611.07 105.17
  A 0.64 0.63 89.9 0 0 611.70 105.81
  L 612.86 105.81
  A 0.63 0.62 -89.6 0 0 613.48 105.19
  Q 613.56 100.45 613.31 97.17
  C 613.02 93.54 608.84 93.39 606.56 95.12
  A 0.32 0.32 0.0 0 1 606.05 94.87"
/>
<path stroke="#7fb393" vector-effect="non-scaling-stroke" d="
  M 639.53 90.62
  A 0.49 0.49 0.0 0 0 639.04 90.13
  L 637.58 90.13
  A 0.49 0.49 0.0 0 0 637.09 90.62
  L 637.09 105.32
  A 0.49 0.49 0.0 0 0 637.58 105.81
  L 639.04 105.81
  A 0.49 0.49 0.0 0 0 639.53 105.32
  L 639.53 90.62"
/>
<path stroke="#7fb393" vector-effect="non-scaling-stroke" d="
  M 654.19 101.61
  Q 655.65 101.61 656.38 101.63
  A 1.02 1.02 0.0 0 1 657.32 102.30
  L 658.36 105.18
  A 0.91 0.91 0.0 0 0 659.21 105.77
  L 660.61 105.77
  A 0.52 0.52 0.0 0 0 661.10 105.07
  L 655.94 90.86
  A 1.00 1.00 0.0 0 0 655.15 90.21
  Q 654.68 90.13 654.18 90.14
  Q 653.67 90.14 653.19 90.21
  A 1.00 1.00 0.0 0 0 652.41 90.87
  L 647.30 105.10
  A 0.52 0.52 0.0 0 0 647.79 105.79
  L 649.19 105.79
  A 0.91 0.91 0.0 0 0 650.04 105.20
  L 651.07 102.31
  A 1.02 1.02 0.0 0 1 652.00 101.63
  Q 652.73 101.61 654.19 101.61"
/>
<path stroke="#7fb393" vector-effect="non-scaling-stroke" d="
  M 206.93 90.30
  A 0.41 0.41 0.0 0 0 206.52 90.71
  L 206.52 105.38
  A 0.41 0.41 0.0 0 0 206.93 105.79
  L 208.59 105.79
  A 0.41 0.41 0.0 0 0 209.00 105.38
  L 209.00 99.67
  A 0.41 0.41 0.0 0 1 209.41 99.26
  L 215.03 99.26
  A 0.41 0.41 0.0 0 0 215.44 98.85
  L 215.44 97.57
  A 0.41 0.41 0.0 0 0 215.03 97.16
  L 209.32 97.16
  A 0.41 0.41 0.0 0 1 208.91 96.75
  L 208.91 92.69
  A 0.41 0.41 0.0 0 1 209.32 92.28
  L 215.81 92.28
  A 0.41 0.41 0.0 0 0 216.22 91.87
  L 216.22 90.71
  A 0.41 0.41 0.0 0 0 215.81 90.30
  L 206.93 90.30"
/>
<path stroke="#7fb393" vector-effect="non-scaling-stroke" d="
  M 627.88 101.62
  Q 629.34 101.62 630.07 101.64
  A 1.02 1.02 0.0 0 1 631.00 102.31
  L 632.04 105.20
  A 0.91 0.91 0.0 0 0 632.88 105.79
  L 634.28 105.79
  A 0.52 0.52 0.0 0 0 634.77 105.09
  L 629.65 90.88
  A 1.00 1.00 0.0 0 0 628.87 90.23
  Q 628.39 90.15 627.90 90.15
  Q 627.38 90.15 626.91 90.22
  A 1.00 1.00 0.0 0 0 626.12 90.88
  L 620.98 105.08
  A 0.52 0.52 0.0 0 0 621.47 105.78
  L 622.87 105.78
  A 0.91 0.91 0.0 0 0 623.72 105.19
  L 624.76 102.31
  A 1.02 1.02 0.0 0 1 625.69 101.64
  Q 626.42 101.62 627.88 101.62"
/>
<path stroke="#7fb393" vector-effect="non-scaling-stroke" d="
  M 258.62 96.11
  L 259.67 96.11
  A 0.68 0.68 0.0 0 0 260.35 95.43
  L 260.35 94.88
  A 0.70 0.69 -89.8 0 0 259.67 94.18
  L 258.49 94.17
  A 0.53 0.53 0.0 0 1 257.97 93.65
  L 257.97 91.99
  A 0.61 0.61 0.0 0 0 257.36 91.38
  L 256.12 91.38
  A 0.65 0.65 0.0 0 0 255.50 92.24
  Q 256.17 94.19 254.31 94.31
  A 0.66 0.66 0.0 0 0 253.70 95.09
  Q 253.88 96.06 255.15 96.21
  A 0.57 0.56 -84.6 0 1 255.65 96.82
  Q 255.60 97.43 255.57 101.63
  C 255.56 104.90 256.78 106.19 259.85 105.87
  A 0.70 0.68 -3.1 0 0 260.47 105.20
  L 260.47 104.39
  A 0.77 0.77 0.0 0 0 259.55 103.63
  Q 258.47 103.85 258.03 103.10
  A 0.57 0.49 -63.7 0 1 257.96 102.83
  L 257.98 96.74
  A 0.64 0.64 0.0 0 1 258.62 96.11"
/>
<path stroke="#7fb393" vector-effect="non-scaling-stroke" d="
  M 335.27 96.09
  L 336.33 96.10
  A 0.68 0.68 0.0 0 0 337.01 95.43
  L 337.01 94.87
  A 0.70 0.69 -89.6 0 0 336.33 94.16
  L 335.15 94.16
  A 0.53 0.53 0.0 0 1 334.62 93.62
  L 334.63 91.97
  A 0.61 0.61 0.0 0 0 334.03 91.35
  L 332.78 91.34
  A 0.66 0.66 0.0 0 0 332.15 92.21
  Q 332.82 94.16 330.95 94.28
  A 0.66 0.66 0.0 0 0 330.34 95.06
  Q 330.51 96.04 331.79 96.19
  A 0.57 0.56 -84.4 0 1 332.29 96.81
  Q 332.23 97.41 332.20 101.63
  C 332.18 104.91 333.40 106.21 336.48 105.90
  A 0.70 0.68 -2.9 0 0 337.10 105.23
  L 337.10 104.42
  A 0.77 0.77 0.0 0 0 336.18 103.65
  Q 335.10 103.87 334.65 103.11
  A 0.57 0.49 -63.5 0 1 334.59 102.84
  L 334.62 96.73
  A 0.64 0.64 0.0 0 1 335.27 96.09"
/>
<path stroke="#7fb393" vector-effect="non-scaling-stroke" d="
  M 599.96 96.11
  L 601.02 96.11
  A 0.68 0.68 0.0 0 0 601.70 95.43
  L 601.70 94.87
  A 0.70 0.69 -90.0 0 0 601.01 94.17
  L 599.83 94.17
  A 0.53 0.53 0.0 0 1 599.30 93.64
  L 599.30 91.98
  A 0.61 0.61 0.0 0 0 598.69 91.37
  L 597.44 91.37
  A 0.66 0.66 0.0 0 0 596.82 92.24
  Q 597.50 94.19 595.63 94.32
  A 0.67 0.66 -7.0 0 0 595.02 95.10
  Q 595.20 96.08 596.48 96.23
  A 0.57 0.56 -84.8 0 1 596.98 96.84
  Q 596.93 97.45 596.92 101.67
  C 596.92 104.95 598.15 106.25 601.23 105.92
  A 0.70 0.68 -3.3 0 0 601.85 105.24
  L 601.85 104.43
  A 0.78 0.77 84.2 0 0 600.92 103.67
  Q 599.84 103.89 599.39 103.14
  A 0.57 0.49 -63.9 0 1 599.32 102.87
  L 599.32 96.75
  A 0.64 0.64 0.0 0 1 599.96 96.11"
/>
<path stroke="#7fb393" vector-effect="non-scaling-stroke" d="
  M 704.35 96.10
  L 705.41 96.10
  A 0.68 0.68 0.0 0 0 706.09 95.43
  L 706.10 94.87
  A 0.70 0.69 -89.7 0 0 705.41 94.17
  L 704.23 94.16
  A 0.53 0.53 0.0 0 1 703.71 93.63
  L 703.71 91.97
  A 0.61 0.61 0.0 0 0 703.11 91.36
  L 701.86 91.35
  A 0.66 0.66 0.0 0 0 701.23 92.22
  Q 701.90 94.17 700.04 94.29
  A 0.66 0.66 0.0 0 0 699.42 95.07
  Q 699.60 96.05 700.88 96.20
  A 0.57 0.56 -84.5 0 1 701.37 96.81
  Q 701.32 97.42 701.29 101.64
  C 701.27 104.91 702.50 106.22 705.57 105.90
  A 0.70 0.68 -3.0 0 0 706.20 105.23
  L 706.20 104.42
  A 0.77 0.77 0.0 0 0 705.28 103.65
  Q 704.20 103.87 703.75 103.12
  A 0.57 0.49 -63.6 0 1 703.68 102.85
  L 703.71 96.73
  A 0.64 0.64 0.0 0 1 704.35 96.10"
/>
<path stroke="#7fb393" vector-effect="non-scaling-stroke" d="
  M 221.15 94.78
  A 0.67 0.67 0.0 0 0 220.48 94.11
  L 219.48 94.11
  A 0.67 0.67 0.0 0 0 218.81 94.78
  L 218.81 105.20
  A 0.67 0.67 0.0 0 0 219.48 105.87
  L 220.48 105.87
  A 0.67 0.67 0.0 0 0 221.15 105.20
  L 221.15 94.78"
/>
<path stroke="#7fb393" vector-effect="non-scaling-stroke" d="
  M 226.44 94.87
  Q 226.29 93.94 224.55 94.06
  A 0.51 0.51 0.0 0 0 224.07 94.56
  L 224.07 105.17
  A 0.56 0.56 0.0 0 0 224.63 105.73
  L 226.00 105.73
  A 0.52 0.52 0.0 0 0 226.52 105.21
  L 226.52 98.52
  A 2.32 2.32 0.0 0 1 228.79 96.21
  L 229.07 96.20
  A 2.17 2.17 0.0 0 1 231.38 98.35
  L 231.40 105.07
  A 0.73 0.72 0.0 0 0 232.13 105.78
  L 233.07 105.78
  A 0.81 0.81 0.0 0 0 233.88 104.96
  Q 233.82 102.53 233.87 99.85
  C 233.94 95.69 232.79 93.24 228.31 94.26
  Q 227.73 94.39 226.96 95.06
  A 0.31 0.31 0.0 0 1 226.44 94.87"
/>
<path stroke="#7fb393" vector-effect="non-scaling-stroke" d="
  M 278.14 100.68
  L 284.91 100.65
  A 0.38 0.38 0.0 0 0 285.29 100.27
  C 285.21 95.82 283.32 93.34 278.35 94.21
  C 275.25 94.76 274.31 98.58 274.77 101.24
  C 275.65 106.31 282.10 107.91 284.81 103.60
  A 0.68 0.68 0.0 0 0 284.43 102.58
  L 283.67 102.36
  A 1.23 1.21 27.0 0 0 282.36 102.77
  Q 280.41 105.23 277.46 102.38
  A 0.99 0.99 0.0 0 1 278.14 100.68"
/>
<path stroke="#7fb393" vector-effect="non-scaling-stroke" d="
  M 316.65 98.87
  A 4.84 4.84 0.0 0 0 311.81 94.03
  L 310.91 94.03
  A 4.84 4.84 0.0 0 0 306.07 98.87
  L 306.07 101.03
  A 4.84 4.84 0.0 0 0 310.91 105.87
  L 311.81 105.87
  A 4.84 4.84 0.0 0 0 316.65 101.03
  L 316.65 98.87"
/>
<path stroke="#7fb393" vector-effect="non-scaling-stroke" d="
  M 324.1337 93.8703
  A 6.08 5.58 -89.4 0 0 318.4903 99.8916
  A 6.08 5.58 -89.4 0 0 324.0063 106.0297
  A 6.08 5.58 -89.4 0 0 329.6497 100.0084
  A 6.08 5.58 -89.4 0 0 324.1337 93.8703"
/>
<path stroke="#7fb393" vector-effect="non-scaling-stroke" d="
  M 344.12 100.07
  C 344.23 104.30 346.89 106.80 351.25 105.65
  Q 353.45 105.08 354.25 103.08
  A 0.80 0.80 0.0 0 0 353.74 102.02
  L 353.06 101.81
  A 1.11 1.10 -70.6 0 0 351.72 102.46
  Q 350.94 104.43 348.45 103.52
  C 347.00 102.98 346.61 101.64 346.57 100.01
  C 346.53 98.38 346.86 97.03 348.28 96.43
  Q 350.72 95.39 351.59 97.32
  A 1.11 1.10 67.8 0 0 352.96 97.90
  L 353.63 97.66
  A 0.80 0.80 0.0 0 0 354.09 96.58
  Q 353.20 94.62 350.97 94.15
  C 346.56 93.22 344.02 95.85 344.12 100.07"
/>
<path stroke="#7fb393" vector-effect="non-scaling-stroke" d="
  M 363.57 105.13
  Q 364.06 106.03 365.52 105.82
  A 0.57 0.57 0.0 0 0 366.00 105.14
  Q 365.87 104.50 366.03 98.76
  Q 366.14 94.68 362.88 94.20
  C 360.92 93.92 358.02 93.99 357.07 95.86
  A 1.26 1.12 -11.1 0 0 359.09 97.05
  Q 360.96 95.32 363.04 96.68
  A 1.08 1.08 0.0 0 1 362.59 98.66
  Q 359.69 99.03 358.50 99.31
  A 2.89 2.88 82.6 0 0 356.26 102.22
  C 356.38 105.97 360.20 107.02 362.95 104.99
  A 0.42 0.42 0.0 0 1 363.57 105.13"
/>
<path stroke="#7fb393" vector-effect="non-scaling-stroke" d="
  M 376.46 105.00
  Q 376.61 105.94 378.36 105.82
  A 0.51 0.51 0.0 0 0 378.84 105.31
  L 378.84 94.64
  A 0.56 0.56 0.0 0 0 378.28 94.08
  L 376.90 94.08
  A 0.52 0.52 0.0 0 0 376.38 94.60
  L 376.38 101.33
  A 2.33 2.33 0.0 0 1 374.10 103.66
  L 373.82 103.67
  A 2.18 2.18 0.0 0 1 371.49 101.50
  L 371.47 94.75
  A 0.73 0.72 0.0 0 0 370.74 94.03
  L 369.79 94.03
  A 0.81 0.81 0.0 0 0 368.98 94.86
  Q 369.04 97.30 368.99 100.00
  C 368.92 104.18 370.08 106.64 374.58 105.62
  Q 375.16 105.49 375.94 104.81
  A 0.32 0.31 64.9 0 1 376.46 105.00"
/>
<path stroke="#7fb393" vector-effect="non-scaling-stroke" d="
  M 389.21 97.38
  A 1.40 1.40 0.0 0 0 389.15 94.70
  C 385.92 93.77 380.19 93.28 381.71 98.85
  A 1.37 1.36 7.1 0 0 382.36 99.68
  Q 384.84 101.05 387.27 101.42
  A 1.03 1.03 0.0 0 1 387.54 103.37
  Q 384.74 104.63 383.79 102.81
  A 1.34 1.31 35.4 0 0 381.29 103.20
  Q 381.20 103.89 382.04 104.60
  C 385.72 107.79 393.69 104.80 389.53 99.86
  A 0.38 0.36 76.4 0 0 389.33 99.73
  L 384.85 98.37
  A 1.13 1.12 38.3 0 1 384.61 96.32
  Q 386.20 95.39 387.87 96.82
  A 2.06 2.01 72.3 0 0 388.66 97.24
  Q 389.20 97.38 389.21 97.38"
/>
<path stroke="#7fb393" vector-effect="non-scaling-stroke" d="
  M 395.88 100.71
  L 402.65 100.62
  A 0.38 0.38 0.0 0 0 403.02 100.23
  C 402.91 95.79 401.00 93.33 396.05 94.24
  C 392.96 94.81 392.04 98.63 392.52 101.29
  C 393.44 106.34 399.90 107.90 402.58 103.57
  A 0.68 0.68 0.0 0 0 402.18 102.56
  L 401.42 102.33
  A 1.23 1.21 26.5 0 0 400.11 102.76
  Q 398.18 105.23 395.22 102.41
  A 0.99 0.99 0.0 0 1 395.88 100.71"
/>
<path stroke="#7fb393" vector-effect="non-scaling-stroke" d="
  M 413.24 94.62
  A 0.49 0.49 0.0 0 0 412.75 94.13
  L 411.33 94.13
  A 0.49 0.49 0.0 0 0 410.84 94.62
  L 410.84 105.30
  A 0.49 0.49 0.0 0 0 411.33 105.79
  L 412.75 105.79
  A 0.49 0.49 0.0 0 0 413.24 105.30
  L 413.24 94.62"
/>
<path stroke="#7fb393" vector-effect="non-scaling-stroke" d="
  M 418.62 94.87
  Q 418.47 93.93 416.73 94.05
  A 0.51 0.51 0.0 0 0 416.25 94.56
  L 416.25 105.20
  A 0.56 0.56 0.0 0 0 416.81 105.76
  L 418.19 105.76
  A 0.52 0.52 0.0 0 0 418.70 105.24
  L 418.70 98.53
  A 2.32 2.32 0.0 0 1 420.98 96.21
  L 421.26 96.20
  A 2.18 2.17 87.9 0 1 423.58 98.36
  L 423.60 105.09
  A 0.73 0.72 -0.0 0 0 424.33 105.81
  L 425.27 105.81
  A 0.81 0.81 0.0 0 0 426.08 104.98
  Q 426.02 102.55 426.07 99.86
  C 426.14 95.69 424.98 93.24 420.50 94.25
  Q 419.92 94.38 419.14 95.06
  A 0.32 0.31 64.9 0 1 418.62 94.87"
/>
<path stroke="#7fb393" vector-effect="non-scaling-stroke" d="
  M 460.09 98.88
  A 4.85 4.85 0.0 0 0 455.24 94.03
  L 454.32 94.03
  A 4.85 4.85 0.0 0 0 449.47 98.88
  L 449.47 101.04
  A 4.85 4.85 0.0 0 0 454.32 105.89
  L 455.24 105.89
  A 4.85 4.85 0.0 0 0 460.09 101.04
  L 460.09 98.88"
/>
<path stroke="#7fb393" vector-effect="non-scaling-stroke" d="
  M 478.55 100.67
  L 485.29 100.68
  A 0.38 0.38 0.0 0 0 485.67 100.30
  C 485.62 95.87 483.75 93.39 478.80 94.23
  C 475.71 94.75 474.75 98.55 475.18 101.20
  C 476.02 106.25 482.45 107.90 485.17 103.62
  A 0.68 0.68 0.0 0 0 484.80 102.60
  L 484.04 102.37
  A 1.22 1.21 27.4 0 0 482.73 102.78
  Q 480.77 105.21 477.85 102.35
  A 0.99 0.98 67.4 0 1 478.55 100.67"
/>
<path stroke="#7fb393" vector-effect="non-scaling-stroke" d="
  M 501.76 97.38
  A 1.40 1.40 0.0 0 0 501.69 94.71
  C 498.47 93.79 492.75 93.31 494.28 98.86
  A 1.36 1.35 7.0 0 0 494.93 99.69
  Q 497.40 101.05 499.83 101.41
  A 1.03 1.02 37.1 0 1 500.10 103.36
  Q 497.31 104.62 496.36 102.80
  A 1.34 1.30 35.3 0 0 493.87 103.20
  Q 493.78 103.88 494.62 104.59
  C 498.29 107.77 506.23 104.77 502.08 99.85
  A 0.38 0.36 76.3 0 0 501.88 99.72
  L 497.41 98.38
  A 1.12 1.12 0.0 0 1 497.17 96.33
  Q 498.75 95.40 500.42 96.82
  A 2.06 2.01 72.2 0 0 501.21 97.24
  Q 501.75 97.38 501.76 97.38"
/>
<path stroke="#7fb393" vector-effect="non-scaling-stroke" d="
  M 526.04 94.95
  Q 525.65 93.51 523.77 94.27
  A 0.33 0.32 79.3 0 0 523.57 94.57
  L 523.57 105.25
  A 0.55 0.55 0.0 0 0 524.12 105.80
  L 525.46 105.80
  A 0.58 0.58 0.0 0 0 526.04 105.22
  Q 526.03 102.65 526.02 99.90
  C 526.00 97.55 526.59 96.08 529.11 96.32
  A 0.76 0.76 0.0 0 0 529.94 95.56
  L 529.94 94.90
  A 0.94 0.93 2.7 0 0 529.09 93.97
  C 528.14 93.87 527.17 94.14 526.67 95.03
  A 0.34 0.34 0.0 0 1 526.04 94.95"
/>
<path stroke="#7fb393" vector-effect="non-scaling-stroke" d="
  M 538.40 105.15
  Q 538.90 106.05 540.37 105.83
  A 0.58 0.57 80.1 0 0 540.85 105.14
  Q 540.71 104.50 540.83 98.71
  Q 540.91 94.60 537.63 94.14
  C 535.65 93.88 532.73 93.97 531.79 95.86
  A 1.27 1.13 -11.5 0 0 533.83 97.04
  Q 535.70 95.29 537.81 96.64
  A 1.09 1.09 0.0 0 1 537.37 98.64
  Q 534.45 99.03 533.25 99.32
  A 2.91 2.91 0.0 0 0 531.02 102.27
  C 531.16 106.05 535.02 107.08 537.78 105.01
  A 0.42 0.42 0.0 0 1 538.40 105.15"
/>
<path stroke="#7fb393" vector-effect="non-scaling-stroke" d="
  M 543.16 100.02
  C 543.24 104.25 545.89 106.76 550.25 105.63
  Q 552.45 105.07 553.26 103.08
  A 0.80 0.80 0.0 0 0 552.75 102.01
  L 552.08 101.80
  A 1.11 1.10 -70.3 0 0 550.73 102.44
  Q 549.95 104.41 547.47 103.48
  C 546.02 102.94 545.64 101.60 545.60 99.98
  C 545.57 98.35 545.90 97.00 547.33 96.40
  Q 549.77 95.38 550.63 97.31
  A 1.11 1.10 68.0 0 0 552.00 97.90
  L 552.67 97.66
  A 0.80 0.80 0.0 0 0 553.13 96.58
  Q 552.25 94.62 550.03 94.14
  C 545.62 93.19 543.08 95.80 543.16 100.02"
/>
<path stroke="#7fb393" vector-effect="non-scaling-stroke" d="
  M 558.74 100.68
  L 565.49 100.66
  A 0.38 0.38 0.0 0 0 565.87 100.28
  C 565.81 95.85 563.93 93.36 558.98 94.22
  C 555.88 94.76 554.93 98.57 555.38 101.22
  C 556.24 106.27 562.67 107.90 565.39 103.61
  A 0.68 0.68 0.0 0 0 565.01 102.59
  L 564.25 102.36
  A 1.22 1.21 27.2 0 0 562.94 102.77
  Q 560.99 105.21 558.06 102.36
  A 0.99 0.98 67.2 0 1 558.74 100.68"
/>
<path stroke="#7fb393" vector-effect="non-scaling-stroke" d="
  M 580.95 97.83
  Q 581.09 97.83 583.18 104.99
  A 1.43 1.43 0.0 0 0 585.92 105.00
  L 588.99 94.83
  A 0.70 0.69 -88.0 0 0 588.17 93.95
  L 587.24 94.17
  A 0.98 0.97 1.5 0 0 586.53 94.84
  L 584.39 101.91
  A 0.14 0.14 0.0 0 1 584.12 101.90
  L 582.54 95.07
  A 1.40 1.38 14.6 0 0 582.13 94.37
  Q 581.83 94.08 580.95 94.08
  Q 580.07 94.08 579.78 94.37
  A 1.40 1.38 -14.4 0 0 579.36 95.06
  L 577.76 101.89
  A 0.14 0.14 0.0 0 1 577.49 101.90
  L 575.38 94.82
  A 0.98 0.97 -1.3 0 0 574.67 94.15
  L 573.74 93.92
  A 0.70 0.69 88.2 0 0 572.92 94.80
  L 575.95 104.98
  A 1.43 1.43 0.0 0 0 578.69 104.98
  Q 580.80 97.83 580.95 97.83"
/>
<path stroke="#7fb393" vector-effect="non-scaling-stroke" d="
  M 593.47 94.62
  A 0.47 0.47 0.0 0 0 593.00 94.15
  L 591.44 94.15
  A 0.47 0.47 0.0 0 0 590.97 94.62
  L 590.97 105.30
  A 0.47 0.47 0.0 0 0 591.44 105.77
  L 593.00 105.77
  A 0.47 0.47 0.0 0 0 593.47 105.30
  L 593.47 94.62"
/>
<path stroke="#7fb393" vector-effect="non-scaling-stroke" d="
  M 670.15 107.12
  A 1.07 1.07 0.0 0 1 669.60 107.78
  Q 667.00 109.10 665.36 107.11
  A 1.16 1.16 0.0 0 0 663.79 106.90
  L 663.51 107.10
  A 0.96 0.95 50.4 0 0 663.38 108.55
  C 665.93 111.20 672.67 110.99 673.01 106.46
  Q 673.04 106.16 673.09 95.02
  A 1.06 1.05 82.3 0 0 671.76 94.00
  Q 670.60 94.31 670.60 95.23
  A 0.15 0.15 0.0 0 1 670.32 95.29
  Q 669.89 94.35 668.19 94.12
  Q 663.96 93.56 662.83 97.29
  C 661.92 100.24 662.41 104.18 665.81 105.30
  Q 668.15 106.08 670.19 104.39
  A 0.41 0.41 0.0 0 1 670.84 104.83
  L 670.15 107.12"
/>
<path stroke="#7fb393" vector-effect="non-scaling-stroke" d="
  M 678.93 100.67
  L 685.69 100.67
  A 0.38 0.38 0.0 0 0 686.07 100.29
  C 686.02 95.85 684.14 93.36 679.18 94.21
  C 676.08 94.74 675.12 98.55 675.56 101.21
  C 676.41 106.27 682.85 107.91 685.58 103.62
  A 0.68 0.68 0.0 0 0 685.20 102.60
  L 684.44 102.37
  A 1.23 1.21 27.3 0 0 683.13 102.78
  Q 681.17 105.22 678.24 102.36
  A 0.99 0.99 0.0 0 1 678.93 100.67"
/>
<path stroke="#7fb393" vector-effect="non-scaling-stroke" d="
  M 690.63 94.91
  Q 690.48 93.97 688.72 94.09
  A 0.51 0.51 0.0 0 0 688.24 94.61
  L 688.30 105.32
  A 0.56 0.56 0.0 0 0 688.86 105.88
  L 690.25 105.87
  A 0.52 0.52 0.0 0 0 690.76 105.35
  L 690.73 98.59
  A 2.34 2.34 0.0 0 1 693.01 96.24
  L 693.29 96.23
  A 2.19 2.19 0.0 0 1 695.64 98.40
  L 695.69 105.17
  A 0.73 0.72 -0.3 0 0 696.43 105.89
  L 697.38 105.89
  A 0.81 0.81 0.0 0 0 698.19 105.05
  Q 698.12 102.60 698.16 99.89
  C 698.21 95.70 697.03 93.23 692.52 94.28
  Q 691.94 94.41 691.16 95.10
  A 0.32 0.32 0.0 0 1 690.63 94.91"
/>
<path stroke="#7fb393" vector-effect="non-scaling-stroke" d="
  M 715.50 97.38
  A 1.40 1.40 0.0 0 0 715.45 94.71
  C 712.23 93.78 706.51 93.28 708.02 98.84
  A 1.37 1.36 7.2 0 0 708.66 99.67
  Q 711.14 101.04 713.56 101.41
  A 1.03 1.02 37.3 0 1 713.83 103.36
  Q 711.03 104.61 710.09 102.79
  A 1.34 1.30 35.5 0 0 707.59 103.18
  Q 707.50 103.87 708.34 104.58
  C 712.00 107.77 719.96 104.79 715.82 99.86
  A 0.38 0.36 76.5 0 0 715.62 99.73
  L 711.15 98.36
  A 1.12 1.12 0.0 0 1 710.91 96.32
  Q 712.50 95.39 714.17 96.82
  A 2.06 2.01 72.4 0 0 714.95 97.24
  Q 715.49 97.38 715.50 97.38"
/>
<path stroke="#7fb393" vector-effect="non-scaling-stroke" d="
  M 740.2730 97.1215
  A 0.76 0.76 0.0 0 0 739.5144 96.3602
  L 739.2944 96.3598
  A 0.76 0.76 0.0 0 0 738.5330 97.1185
  L 738.5270 100.5985
  A 0.76 0.76 0.0 0 0 739.2856 101.3598
  L 739.5056 101.3602
  A 0.76 0.76 0.0 0 0 740.2670 100.6015
  L 740.2730 97.1215"
/>
<path stroke="#7fb393" vector-effect="non-scaling-stroke" d="
  M 758.0436 96.9250
  A 0.55 0.55 0.0 0 0 757.4974 96.3712
  L 757.1775 96.3689
  A 0.55 0.55 0.0 0 0 756.6236 96.9151
  L 756.5964 100.8150
  A 0.55 0.55 0.0 0 0 757.1426 101.3688
  L 757.4625 101.3711
  A 0.55 0.55 0.0 0 0 758.0164 100.8249
  L 758.0436 96.9250"
/>
<path stroke="#7fb393" vector-effect="non-scaling-stroke" d="
  M 770.22 100.48
  Q 770.22 100.68 770.29 100.77
  Q 772.47 103.32 773.19 103.64
  A 0.78 0.77 86.0 0 0 774.16 102.52
  C 773.75 101.86 772.32 100.81 772.32 100.47
  C 772.32 100.11 773.75 99.06 774.16 98.40
  A 0.78 0.77 -86.0 0 0 773.19 97.28
  Q 772.47 97.60 770.29 100.15
  Q 770.22 100.23 770.22 100.48"
/>
<path stroke="#7fb393" vector-effect="non-scaling-stroke" d="
  M 780.05 100.39
  Q 780.04 100.18 779.97 100.10
  Q 777.77 97.59 777.05 97.28
  A 0.77 0.77 0.0 0 0 776.10 98.41
  C 776.52 99.06 777.96 100.09 777.96 100.42
  C 777.96 100.78 776.55 101.84 776.15 102.50
  A 0.77 0.77 0.0 0 0 777.13 103.60
  Q 777.84 103.28 779.98 100.71
  Q 780.05 100.63 780.05 100.39"
/>
<path stroke="#7fb393" vector-effect="non-scaling-stroke" d="
  M 810.80 102.72
  L 813.60 106.75
  A 0.27 0.27 0.0 0 0 813.97 106.82
  L 814.27 106.62
  A 0.64 0.64 0.0 0 0 814.43 105.74
  L 811.26 101.18
  A 0.79 0.79 0.0 0 0 810.47 100.85
  C 807.53 101.36 806.68 103.64 805.22 106.33
  A 0.26 0.26 0.0 0 0 805.32 106.69
  L 805.61 106.86
  A 0.66 0.66 0.0 0 0 806.51 106.62
  L 808.40 103.34
  A 0.38 0.37 60.1 0 1 809.10 103.53
  L 809.10 107.31
  A 0.44 0.43 -90.0 0 0 809.53 107.75
  L 809.78 107.75
  A 0.85 0.85 0.0 0 0 810.63 106.90
  L 810.63 102.77
  A 0.09 0.09 0.0 0 1 810.80 102.72"
/>
<path stroke="#7fb393" vector-effect="non-scaling-stroke" d="
  M 754.0770 94.8798
  A 0.80 0.80 0.0 0 0 753.2784 94.0784
  L 743.6184 94.0616
  A 0.80 0.80 0.0 0 0 742.8170 94.8602
  L 742.8030 102.8802
  A 0.80 0.80 0.0 0 0 743.6016 103.6816
  L 753.2616 103.6984
  A 0.80 0.80 0.0 0 0 754.0630 102.8998
  L 754.0770 94.8798"
/>
<path stroke="#7fb393" vector-effect="non-scaling-stroke" d="
  M 781.86 93.71
  Q 782.20 94.06 783.74 94.02
  A 0.42 0.42 0.0 0 0 784.12 93.44
  Q 784.08 93.35 783.18 92.43
  Q 782.28 91.50 782.19 91.46
  A 0.42 0.42 0.0 0 0 781.60 91.82
  Q 781.52 93.36 781.86 93.71"
/>
<path stroke="#7fb393" vector-effect="non-scaling-stroke" d="
  M 817.76 94.22
  L 815.46 90.36
  A 0.28 0.28 0.0 0 0 815.08 90.26
  L 813.42 91.25
  A 1.31 0.77 -30.8 0 0 812.69 92.58
  L 814.49 95.60
  A 1.31 0.77 -30.8 0 0 816.01 95.59
  L 817.67 94.61
  A 0.28 0.28 0.0 0 0 817.76 94.22"
/>
<path stroke="#7fb393" vector-effect="non-scaling-stroke" d="
  M 813.33 96.19
  L 811.56 93.19
  A 0.25 0.25 0.0 0 0 811.21 93.11
  L 808.25 94.86
  A 4.11 0.92 -30.7 0 0 805.19 97.75
  L 806.28 99.59
  A 4.11 0.92 -30.7 0 0 810.29 98.28
  L 813.24 96.53
  A 0.25 0.25 0.0 0 0 813.33 96.19"
/>
<path stroke="#7fb393" vector-effect="non-scaling-stroke" d="
  M 804.4437 98.7956
  A 0.80 0.80 0.0 0 0 803.3683 98.4441
  L 802.2268 99.0232
  A 0.80 0.80 0.0 0 0 801.8753 100.0986
  L 802.4363 101.2044
  A 0.80 0.80 0.0 0 0 803.5117 101.5559
  L 804.6532 100.9768
  A 0.80 0.80 0.0 0 0 805.0047 99.9014
  L 804.4437 98.7956"
/>
<path stroke="#7fb393" vector-effect="non-scaling-stroke" d="
  M 241.4735 96.0500
  A 3.87 2.94 -89.8 0 0 238.5200 99.9097
  A 3.87 2.94 -89.8 0 0 241.4465 103.7900
  A 3.87 2.94 -89.8 0 0 244.4000 99.9303
  A 3.87 2.94 -89.8 0 0 241.4735 96.0500"
/>
<path stroke="#7fb393" vector-effect="non-scaling-stroke" d="
  M 295.79 92.67
  L 295.81 97.41
  A 0.28 0.28 0.0 0 0 296.09 97.69
  L 299.02 97.68
  A 2.63 2.17 -0.2 0 0 301.64 95.50
  L 301.64 94.54
  A 2.63 2.17 -0.2 0 0 299.00 92.38
  L 296.07 92.39
  A 0.28 0.28 0.0 0 0 295.79 92.67"
/>
<path stroke="#7fb393" vector-effect="non-scaling-stroke" d="
  M 467.4567 96.0600
  A 3.86 2.96 -89.9 0 0 464.4900 99.9148
  A 3.86 2.96 -89.9 0 0 467.4433 103.7800
  A 3.86 2.96 -89.9 0 0 470.4100 99.9252
  A 3.86 2.96 -89.9 0 0 467.4567 96.0600"
/>
<path stroke="#7fb393" vector-effect="non-scaling-stroke" d="
  M 654.20 99.47
  Q 654.89 99.46 655.78 99.44
  A 0.49 0.49 0.0 0 0 656.23 98.79
  Q 654.26 93.14 654.09 93.15
  Q 653.91 93.15 652.15 98.86
  A 0.49 0.49 0.0 0 0 652.63 99.49
  Q 653.52 99.49 654.20 99.47"
/>
<path stroke="#7fb393" vector-effect="non-scaling-stroke" d="
  M 627.83 99.47
  Q 628.51 99.48 629.41 99.48
  A 0.49 0.49 0.0 0 0 629.88 98.85
  Q 628.08 93.11 627.90 93.11
  Q 627.73 93.11 625.79 98.79
  A 0.49 0.49 0.0 0 0 626.24 99.44
  Q 627.14 99.46 627.83 99.47"
/>
<path stroke="#7fb393" vector-effect="non-scaling-stroke" d="
  M 277.43 98.88
  L 282.51 98.78
  A 0.19 0.19 0.0 0 0 282.69 98.59
  L 282.69 98.47
  A 2.58 2.43 -1.1 0 0 280.06 96.09
  L 279.76 96.09
  A 2.58 2.43 -1.1 0 0 277.23 98.57
  L 277.23 98.69
  A 0.19 0.19 0.0 0 0 277.43 98.88"
/>
<path stroke="#7fb393" vector-effect="non-scaling-stroke" d="
  M 311.3094 96.0101
  A 3.93 2.94 -90.3 0 0 308.3900 99.9554
  A 3.93 2.94 -90.3 0 0 311.3506 103.8699
  A 3.93 2.94 -90.3 0 0 314.2700 99.9246
  A 3.93 2.94 -90.3 0 0 311.3094 96.0101"
/>
<path stroke="#7fb393" vector-effect="non-scaling-stroke" d="
  M 324.0530 96.0601
  A 3.87 3.06 -90.4 0 0 321.0201 99.9514
  A 3.87 3.06 -90.4 0 0 324.1070 103.7999
  A 3.87 3.06 -90.4 0 0 327.1399 99.9086
  A 3.87 3.06 -90.4 0 0 324.0530 96.0601"
/>
<path stroke="#7fb393" vector-effect="non-scaling-stroke" d="
  M 362.54 100.49
  L 359.43 101.21
  A 1.18 1.18 0.0 0 0 359.14 103.41
  Q 361.91 104.88 363.62 101.95
  A 0.99 0.99 0.0 0 0 362.54 100.49"
/>
<path stroke="#7fb393" vector-effect="non-scaling-stroke" d="
  M 395.27 98.90
  L 400.23 98.78
  A 0.20 0.20 0.0 0 0 400.43 98.58
  L 400.42 98.47
  A 2.54 2.45 -1.3 0 0 397.83 96.08
  L 397.55 96.08
  A 2.54 2.45 -1.3 0 0 395.06 98.59
  L 395.07 98.70
  A 0.20 0.20 0.0 0 0 395.27 98.90"
/>
<path stroke="#7fb393" vector-effect="non-scaling-stroke" d="
  M 454.7631 96.0100
  A 3.93 2.95 -90.1 0 0 451.8200 99.9451
  A 3.93 2.95 -90.1 0 0 454.7769 103.8700
  A 3.93 2.95 -90.1 0 0 457.7200 99.9349
  A 3.93 2.95 -90.1 0 0 454.7631 96.0100"
/>
<path stroke="#7fb393" vector-effect="non-scaling-stroke" d="
  M 477.85 98.82
  L 482.83 98.78
  A 0.20 0.20 0.0 0 0 483.03 98.58
  L 483.03 98.47
  A 2.58 2.41 -0.5 0 0 480.43 96.08
  L 480.21 96.08
  A 2.58 2.41 -0.5 0 0 477.65 98.51
  L 477.65 98.62
  A 0.20 0.20 0.0 0 0 477.85 98.82"
/>
<path stroke="#7fb393" vector-effect="non-scaling-stroke" d="
  M 537.35 100.46
  L 534.27 101.20
  A 1.18 1.18 0.0 0 0 533.99 103.39
  Q 536.76 104.83 538.44 101.91
  A 0.98 0.98 0.0 0 0 537.35 100.46"
/>
<path stroke="#7fb393" vector-effect="non-scaling-stroke" d="
  M 558.04 98.82
  L 563.02 98.78
  A 0.19 0.19 0.0 0 0 563.21 98.59
  L 563.21 98.48
  A 2.55 2.40 -0.4 0 0 560.64 96.10
  L 560.38 96.10
  A 2.55 2.40 -0.4 0 0 557.85 98.52
  L 557.85 98.63
  A 0.19 0.19 0.0 0 0 558.04 98.82"
/>
<path stroke="#7fb393" vector-effect="non-scaling-stroke" d="
  M 667.8069 96.0200
  A 3.76 2.89 -90.2 0 0 664.9300 99.7901
  A 3.76 2.89 -90.2 0 0 667.8331 103.5400
  A 3.76 2.89 -90.2 0 0 670.7100 99.7699
  A 3.76 2.89 -90.2 0 0 667.8069 96.0200"
/>
<path stroke="#7fb393" vector-effect="non-scaling-stroke" d="
  M 678.14 98.82
  L 683.30 98.82
  A 0.19 0.19 0.0 0 0 683.49 98.63
  L 683.49 98.51
  A 2.68 2.41 0.1 0 0 680.81 96.10
  L 680.63 96.10
  A 2.68 2.41 0.1 0 0 677.95 98.51
  L 677.95 98.63
  A 0.19 0.19 0.0 0 0 678.14 98.82"
/>
<path stroke="#7fb393" vector-effect="non-scaling-stroke" d="
  M 747.09 98.77
  A 1.15 1.15 0.0 0 0 745.94 97.62
  A 1.15 1.15 0.0 0 0 744.79 98.77
  A 1.15 1.15 0.0 0 0 745.94 99.92
  A 1.15 1.15 0.0 0 0 747.09 98.77"
/>
<path stroke="#7fb393" vector-effect="non-scaling-stroke" d="
  M 749.6649 98.5582
  A 1.24 1.08 -171.1 0 0 750.7229 99.8170
  A 1.24 1.08 -171.1 0 0 752.1151 98.9418
  A 1.24 1.08 -171.1 0 0 751.0571 97.6830
  A 1.24 1.08 -171.1 0 0 749.6649 98.5582"
/>
</g>
<path fill="#ecfcf4" d="
  M 1024.00 0.00
  L 1024.00 196.00
  L 0.00 196.00
  L 0.00 0.00
  L 1024.00 0.00
  Z
  M 748.25 105.39
  C 751.42 105.42 755.59 106.26 755.63 102.71
  Q 755.71 95.48 755.71 95.00
  C 755.75 91.46 751.92 92.50 749.60 92.22
  A 0.64 0.64 0.0 0 1 749.07 91.40
  L 749.50 89.96
  A 0.75 0.72 41.1 0 0 749.45 89.43
  Q 749.10 88.74 748.39 88.73
  Q 747.68 88.72 747.32 89.41
  A 0.75 0.72 -40.1 0 0 747.27 89.94
  L 747.67 91.39
  A 0.64 0.64 0.0 0 1 747.13 92.20
  C 744.80 92.44 740.99 91.33 740.97 94.87
  Q 740.96 95.35 740.92 102.58
  C 740.90 106.13 745.08 105.36 748.25 105.39
  Z
  M 785.03 96.19
  L 785.03 104.47
  A 0.90 0.90 0.0 0 1 784.13 105.37
  L 772.31 105.37
  A 0.45 0.45 0.0 0 0 771.86 105.82
  L 771.86 106.09
  A 0.84 0.84 0.0 0 0 772.70 106.93
  L 784.26 106.93
  A 2.30 2.30 0.0 0 0 786.56 104.63
  L 786.56 94.14
  A 1.47 1.47 0.0 0 0 786.13 93.10
  L 782.76 89.73
  A 2.19 2.17 67.3 0 0 781.22 89.09
  L 774.17 89.09
  A 2.41 2.41 0.0 0 0 771.76 91.50
  L 771.76 94.76
  A 0.63 0.62 -0.0 0 0 772.39 95.38
  L 772.87 95.38
  A 0.71 0.71 0.0 0 0 773.58 94.67
  L 773.58 91.58
  A 0.97 0.97 0.0 0 1 774.55 90.61
  L 779.17 90.61
  A 0.95 0.95 0.0 0 1 780.11 91.68
  Q 779.54 96.08 784.22 95.48
  A 0.72 0.71 86.1 0 1 785.03 96.19
  Z
  M 816.97 90.01
  A 1.88 1.88 0.0 0 0 814.19 89.27
  L 801.29 98.21
  A 1.88 1.88 0.0 0 0 800.66 100.56
  L 801.25 101.83
  A 1.88 1.88 0.0 0 0 803.75 102.73
  L 817.77 96.14
  A 1.88 1.88 0.0 0 0 818.67 93.64
  L 816.97 90.01
  Z
  M 221.3904 90.8319
  A 0.99 0.99 0.0 0 0 220.4374 89.8063
  L 219.5979 89.7755
  A 0.99 0.99 0.0 0 0 218.5723 90.7285
  L 218.5496 91.3481
  A 0.99 0.99 0.0 0 0 219.5026 92.3737
  L 220.3421 92.4045
  A 0.99 0.99 0.0 0 0 221.3677 91.4515
  L 221.3904 90.8319
  Z
  M 413.5495 90.8178
  A 1.02 1.02 0.0 0 0 412.6070 89.7258
  L 411.7293 89.6614
  A 1.02 1.02 0.0 0 0 410.6374 90.6039
  L 410.5905 91.2422
  A 1.02 1.02 0.0 0 0 411.5330 92.3342
  L 412.4107 92.3986
  A 1.02 1.02 0.0 0 0 413.5026 91.4561
  L 413.5495 90.8178
  Z
  M 593.75 91.02
  A 1.47 1.47 0.0 0 0 592.28 89.55
  A 1.47 1.47 0.0 0 0 590.81 91.02
  A 1.47 1.47 0.0 0 0 592.28 92.49
  A 1.47 1.47 0.0 0 0 593.75 91.02
  Z
  M 244.45 104.78
  Q 244.45 104.91 244.46 105.00
  A 0.80 0.79 -82.7 0 0 244.99 105.69
  Q 246.60 106.24 246.87 105.38
  A 0.76 0.70 -42.6 0 0 246.88 105.26
  L 246.88 90.72
  A 0.63 0.63 0.0 0 0 246.25 90.09
  L 245.03 90.09
  A 0.63 0.63 0.0 0 0 244.40 90.72
  L 244.40 95.00
  A 0.27 0.27 0.0 0 1 243.93 95.17
  Q 242.79 93.80 240.13 94.08
  C 234.60 94.65 234.74 104.49 240.17 105.94
  C 241.80 106.38 242.81 105.65 243.97 104.57
  A 0.29 0.29 0.0 0 1 244.45 104.78
  Z
  M 264.73 94.85
  L 264.73 90.72
  A 0.63 0.62 90.0 0 0 264.11 90.09
  L 262.95 90.09
  A 0.60 0.59 -90.0 0 0 262.36 90.69
  L 262.36 105.16
  A 0.64 0.64 0.0 0 0 263.00 105.80
  L 264.16 105.80
  A 0.61 0.61 0.0 0 0 264.77 105.19
  L 264.80 98.55
  A 2.34 2.34 0.0 0 1 267.13 96.22
  L 267.38 96.20
  A 2.21 2.21 0.0 0 1 269.74 98.40
  L 269.74 105.17
  A 0.64 0.63 90.0 0 0 270.37 105.81
  L 271.53 105.81
  A 0.63 0.62 -89.5 0 0 272.15 105.19
  Q 272.24 100.45 271.99 97.16
  C 271.71 93.53 267.53 93.37 265.24 95.10
  A 0.32 0.32 0.0 0 1 264.73 94.85
  Z
  M 304.47 105.24
  L 301.93 99.83
  A 0.48 0.46 -29.8 0 1 302.10 99.24
  C 305.40 97.06 305.04 91.75 300.92 90.47
  Q 299.38 89.99 293.82 90.16
  A 0.65 0.65 0.0 0 0 293.19 90.81
  L 293.19 105.22
  A 0.57 0.57 0.0 0 0 293.76 105.79
  L 295.23 105.79
  A 0.57 0.57 0.0 0 0 295.80 105.22
  L 295.80 100.37
  A 0.56 0.56 0.0 0 1 296.36 99.81
  L 298.53 99.81
  A 0.77 0.76 77.0 0 1 299.22 100.25
  L 301.57 105.25
  A 0.97 0.97 0.0 0 0 302.45 105.81
  L 304.11 105.81
  A 0.40 0.40 0.0 0 0 304.47 105.24
  Z
  M 433.95 97.95
  C 433.94 106.27 444.64 109.35 447.43 101.35
  A 0.55 0.55 0.0 0 0 446.91 100.62
  L 445.61 100.62
  A 1.02 1.01 -76.8 0 0 444.70 101.19
  Q 443.24 104.16 439.95 103.43
  C 437.64 102.91 436.59 100.03 436.59 97.95
  C 436.60 95.87 437.65 92.99 439.96 92.48
  Q 443.25 91.75 444.71 94.73
  A 1.02 1.01 76.9 0 0 445.62 95.30
  L 446.92 95.30
  A 0.55 0.55 0.0 0 0 447.44 94.57
  C 444.66 86.56 433.96 89.62 433.95 97.95
  Z
  M 470.38 104.79
  Q 470.38 104.92 470.39 105.01
  A 0.80 0.79 -82.5 0 0 470.92 105.71
  Q 472.53 106.26 472.80 105.40
  A 0.76 0.70 -42.4 0 0 472.81 105.28
  L 472.86 90.73
  A 0.63 0.63 0.0 0 0 472.23 90.09
  L 471.00 90.09
  A 0.63 0.63 0.0 0 0 470.37 90.72
  L 470.36 95.00
  A 0.27 0.27 0.0 0 1 469.89 95.17
  Q 468.75 93.80 466.09 94.07
  C 460.55 94.62 460.66 104.47 466.09 105.94
  C 467.72 106.39 468.73 105.66 469.90 104.58
  A 0.29 0.29 0.0 0 1 470.38 104.79
  Z
  M 490.5261 90.5939
  A 0.49 0.49 0.0 0 0 490.0335 90.1065
  L 488.6736 90.1136
  A 0.49 0.49 0.0 0 0 488.1861 90.6062
  L 488.2139 95.9061
  A 0.49 0.49 0.0 0 0 488.7065 96.3935
  L 490.0664 96.3864
  A 0.49 0.49 0.0 0 0 490.5539 95.8938
  L 490.5261 90.5939
  Z
  M 516.56 105.79
  Q 517.15 105.79 517.36 105.77
  A 0.52 0.51 -4.3 0 0 517.80 105.26
  L 517.80 92.90
  A 0.52 0.51 -90.0 0 1 518.31 92.38
  L 521.99 92.38
  A 0.56 0.55 0.0 0 0 522.55 91.83
  L 522.55 90.79
  A 0.67 0.66 -0.2 0 0 521.87 90.13
  Q 519.36 90.16 516.54 90.15
  Q 513.73 90.17 511.22 90.13
  A 0.67 0.66 0.1 0 0 510.54 90.80
  L 510.54 91.84
  A 0.56 0.55 -0.1 0 0 511.10 92.39
  L 514.78 92.38
  A 0.52 0.51 89.9 0 1 515.29 92.90
  L 515.31 105.26
  A 0.52 0.51 4.2 0 0 515.76 105.77
  Q 515.96 105.80 516.56 105.79
  Z
  M 606.05 94.87
  L 606.04 90.74
  A 0.63 0.62 89.9 0 0 605.42 90.11
  L 604.26 90.12
  A 0.60 0.59 89.9 0 0 603.67 90.72
  L 603.70 105.18
  A 0.64 0.64 0.0 0 0 604.34 105.81
  L 605.50 105.81
  A 0.61 0.61 0.0 0 0 606.10 105.20
  L 606.12 98.57
  A 2.34 2.34 0.0 0 1 608.45 96.24
  L 608.70 96.22
  A 2.21 2.20 -2.0 0 1 611.06 98.41
  L 611.07 105.17
  A 0.64 0.63 89.9 0 0 611.70 105.81
  L 612.86 105.81
  A 0.63 0.62 -89.6 0 0 613.48 105.19
  Q 613.56 100.45 613.31 97.17
  C 613.02 93.54 608.84 93.39 606.56 95.12
  A 0.32 0.32 0.0 0 1 606.05 94.87
  Z
  M 639.53 90.62
  A 0.49 0.49 0.0 0 0 639.04 90.13
  L 637.58 90.13
  A 0.49 0.49 0.0 0 0 637.09 90.62
  L 637.09 105.32
  A 0.49 0.49 0.0 0 0 637.58 105.81
  L 639.04 105.81
  A 0.49 0.49 0.0 0 0 639.53 105.32
  L 639.53 90.62
  Z
  M 654.19 101.61
  Q 655.65 101.61 656.38 101.63
  A 1.02 1.02 0.0 0 1 657.32 102.30
  L 658.36 105.18
  A 0.91 0.91 0.0 0 0 659.21 105.77
  L 660.61 105.77
  A 0.52 0.52 0.0 0 0 661.10 105.07
  L 655.94 90.86
  A 1.00 1.00 0.0 0 0 655.15 90.21
  Q 654.68 90.13 654.18 90.14
  Q 653.67 90.14 653.19 90.21
  A 1.00 1.00 0.0 0 0 652.41 90.87
  L 647.30 105.10
  A 0.52 0.52 0.0 0 0 647.79 105.79
  L 649.19 105.79
  A 0.91 0.91 0.0 0 0 650.04 105.20
  L 651.07 102.31
  A 1.02 1.02 0.0 0 1 652.00 101.63
  Q 652.73 101.61 654.19 101.61
  Z
  M 206.93 90.30
  A 0.41 0.41 0.0 0 0 206.52 90.71
  L 206.52 105.38
  A 0.41 0.41 0.0 0 0 206.93 105.79
  L 208.59 105.79
  A 0.41 0.41 0.0 0 0 209.00 105.38
  L 209.00 99.67
  A 0.41 0.41 0.0 0 1 209.41 99.26
  L 215.03 99.26
  A 0.41 0.41 0.0 0 0 215.44 98.85
  L 215.44 97.57
  A 0.41 0.41 0.0 0 0 215.03 97.16
  L 209.32 97.16
  A 0.41 0.41 0.0 0 1 208.91 96.75
  L 208.91 92.69
  A 0.41 0.41 0.0 0 1 209.32 92.28
  L 215.81 92.28
  A 0.41 0.41 0.0 0 0 216.22 91.87
  L 216.22 90.71
  A 0.41 0.41 0.0 0 0 215.81 90.30
  L 206.93 90.30
  Z
  M 627.88 101.62
  Q 629.34 101.62 630.07 101.64
  A 1.02 1.02 0.0 0 1 631.00 102.31
  L 632.04 105.20
  A 0.91 0.91 0.0 0 0 632.88 105.79
  L 634.28 105.79
  A 0.52 0.52 0.0 0 0 634.77 105.09
  L 629.65 90.88
  A 1.00 1.00 0.0 0 0 628.87 90.23
  Q 628.39 90.15 627.90 90.15
  Q 627.38 90.15 626.91 90.22
  A 1.00 1.00 0.0 0 0 626.12 90.88
  L 620.98 105.08
  A 0.52 0.52 0.0 0 0 621.47 105.78
  L 622.87 105.78
  A 0.91 0.91 0.0 0 0 623.72 105.19
  L 624.76 102.31
  A 1.02 1.02 0.0 0 1 625.69 101.64
  Q 626.42 101.62 627.88 101.62
  Z
  M 258.62 96.11
  L 259.67 96.11
  A 0.68 0.68 0.0 0 0 260.35 95.43
  L 260.35 94.88
  A 0.70 0.69 -89.8 0 0 259.67 94.18
  L 258.49 94.17
  A 0.53 0.53 0.0 0 1 257.97 93.65
  L 257.97 91.99
  A 0.61 0.61 0.0 0 0 257.36 91.38
  L 256.12 91.38
  A 0.65 0.65 0.0 0 0 255.50 92.24
  Q 256.17 94.19 254.31 94.31
  A 0.66 0.66 0.0 0 0 253.70 95.09
  Q 253.88 96.06 255.15 96.21
  A 0.57 0.56 -84.6 0 1 255.65 96.82
  Q 255.60 97.43 255.57 101.63
  C 255.56 104.90 256.78 106.19 259.85 105.87
  A 0.70 0.68 -3.1 0 0 260.47 105.20
  L 260.47 104.39
  A 0.77 0.77 0.0 0 0 259.55 103.63
  Q 258.47 103.85 258.03 103.10
  A 0.57 0.49 -63.7 0 1 257.96 102.83
  L 257.98 96.74
  A 0.64 0.64 0.0 0 1 258.62 96.11
  Z
  M 335.27 96.09
  L 336.33 96.10
  A 0.68 0.68 0.0 0 0 337.01 95.43
  L 337.01 94.87
  A 0.70 0.69 -89.6 0 0 336.33 94.16
  L 335.15 94.16
  A 0.53 0.53 0.0 0 1 334.62 93.62
  L 334.63 91.97
  A 0.61 0.61 0.0 0 0 334.03 91.35
  L 332.78 91.34
  A 0.66 0.66 0.0 0 0 332.15 92.21
  Q 332.82 94.16 330.95 94.28
  A 0.66 0.66 0.0 0 0 330.34 95.06
  Q 330.51 96.04 331.79 96.19
  A 0.57 0.56 -84.4 0 1 332.29 96.81
  Q 332.23 97.41 332.20 101.63
  C 332.18 104.91 333.40 106.21 336.48 105.90
  A 0.70 0.68 -2.9 0 0 337.10 105.23
  L 337.10 104.42
  A 0.77 0.77 0.0 0 0 336.18 103.65
  Q 335.10 103.87 334.65 103.11
  A 0.57 0.49 -63.5 0 1 334.59 102.84
  L 334.62 96.73
  A 0.64 0.64 0.0 0 1 335.27 96.09
  Z
  M 599.96 96.11
  L 601.02 96.11
  A 0.68 0.68 0.0 0 0 601.70 95.43
  L 601.70 94.87
  A 0.70 0.69 -90.0 0 0 601.01 94.17
  L 599.83 94.17
  A 0.53 0.53 0.0 0 1 599.30 93.64
  L 599.30 91.98
  A 0.61 0.61 0.0 0 0 598.69 91.37
  L 597.44 91.37
  A 0.66 0.66 0.0 0 0 596.82 92.24
  Q 597.50 94.19 595.63 94.32
  A 0.67 0.66 -7.0 0 0 595.02 95.10
  Q 595.20 96.08 596.48 96.23
  A 0.57 0.56 -84.8 0 1 596.98 96.84
  Q 596.93 97.45 596.92 101.67
  C 596.92 104.95 598.15 106.25 601.23 105.92
  A 0.70 0.68 -3.3 0 0 601.85 105.24
  L 601.85 104.43
  A 0.78 0.77 84.2 0 0 600.92 103.67
  Q 599.84 103.89 599.39 103.14
  A 0.57 0.49 -63.9 0 1 599.32 102.87
  L 599.32 96.75
  A 0.64 0.64 0.0 0 1 599.96 96.11
  Z
  M 704.35 96.10
  L 705.41 96.10
  A 0.68 0.68 0.0 0 0 706.09 95.43
  L 706.10 94.87
  A 0.70 0.69 -89.7 0 0 705.41 94.17
  L 704.23 94.16
  A 0.53 0.53 0.0 0 1 703.71 93.63
  L 703.71 91.97
  A 0.61 0.61 0.0 0 0 703.11 91.36
  L 701.86 91.35
  A 0.66 0.66 0.0 0 0 701.23 92.22
  Q 701.90 94.17 700.04 94.29
  A 0.66 0.66 0.0 0 0 699.42 95.07
  Q 699.60 96.05 700.88 96.20
  A 0.57 0.56 -84.5 0 1 701.37 96.81
  Q 701.32 97.42 701.29 101.64
  C 701.27 104.91 702.50 106.22 705.57 105.90
  A 0.70 0.68 -3.0 0 0 706.20 105.23
  L 706.20 104.42
  A 0.77 0.77 0.0 0 0 705.28 103.65
  Q 704.20 103.87 703.75 103.12
  A 0.57 0.49 -63.6 0 1 703.68 102.85
  L 703.71 96.73
  A 0.64 0.64 0.0 0 1 704.35 96.10
  Z
  M 221.15 94.78
  A 0.67 0.67 0.0 0 0 220.48 94.11
  L 219.48 94.11
  A 0.67 0.67 0.0 0 0 218.81 94.78
  L 218.81 105.20
  A 0.67 0.67 0.0 0 0 219.48 105.87
  L 220.48 105.87
  A 0.67 0.67 0.0 0 0 221.15 105.20
  L 221.15 94.78
  Z
  M 226.44 94.87
  Q 226.29 93.94 224.55 94.06
  A 0.51 0.51 0.0 0 0 224.07 94.56
  L 224.07 105.17
  A 0.56 0.56 0.0 0 0 224.63 105.73
  L 226.00 105.73
  A 0.52 0.52 0.0 0 0 226.52 105.21
  L 226.52 98.52
  A 2.32 2.32 0.0 0 1 228.79 96.21
  L 229.07 96.20
  A 2.17 2.17 0.0 0 1 231.38 98.35
  L 231.40 105.07
  A 0.73 0.72 0.0 0 0 232.13 105.78
  L 233.07 105.78
  A 0.81 0.81 0.0 0 0 233.88 104.96
  Q 233.82 102.53 233.87 99.85
  C 233.94 95.69 232.79 93.24 228.31 94.26
  Q 227.73 94.39 226.96 95.06
  A 0.31 0.31 0.0 0 1 226.44 94.87
  Z
  M 278.14 100.68
  L 284.91 100.65
  A 0.38 0.38 0.0 0 0 285.29 100.27
  C 285.21 95.82 283.32 93.34 278.35 94.21
  C 275.25 94.76 274.31 98.58 274.77 101.24
  C 275.65 106.31 282.10 107.91 284.81 103.60
  A 0.68 0.68 0.0 0 0 284.43 102.58
  L 283.67 102.36
  A 1.23 1.21 27.0 0 0 282.36 102.77
  Q 280.41 105.23 277.46 102.38
  A 0.99 0.99 0.0 0 1 278.14 100.68
  Z
  M 316.65 98.87
  A 4.84 4.84 0.0 0 0 311.81 94.03
  L 310.91 94.03
  A 4.84 4.84 0.0 0 0 306.07 98.87
  L 306.07 101.03
  A 4.84 4.84 0.0 0 0 310.91 105.87
  L 311.81 105.87
  A 4.84 4.84 0.0 0 0 316.65 101.03
  L 316.65 98.87
  Z
  M 324.1337 93.8703
  A 6.08 5.58 -89.4 0 0 318.4903 99.8916
  A 6.08 5.58 -89.4 0 0 324.0063 106.0297
  A 6.08 5.58 -89.4 0 0 329.6497 100.0084
  A 6.08 5.58 -89.4 0 0 324.1337 93.8703
  Z
  M 344.12 100.07
  C 344.23 104.30 346.89 106.80 351.25 105.65
  Q 353.45 105.08 354.25 103.08
  A 0.80 0.80 0.0 0 0 353.74 102.02
  L 353.06 101.81
  A 1.11 1.10 -70.6 0 0 351.72 102.46
  Q 350.94 104.43 348.45 103.52
  C 347.00 102.98 346.61 101.64 346.57 100.01
  C 346.53 98.38 346.86 97.03 348.28 96.43
  Q 350.72 95.39 351.59 97.32
  A 1.11 1.10 67.8 0 0 352.96 97.90
  L 353.63 97.66
  A 0.80 0.80 0.0 0 0 354.09 96.58
  Q 353.20 94.62 350.97 94.15
  C 346.56 93.22 344.02 95.85 344.12 100.07
  Z
  M 363.57 105.13
  Q 364.06 106.03 365.52 105.82
  A 0.57 0.57 0.0 0 0 366.00 105.14
  Q 365.87 104.50 366.03 98.76
  Q 366.14 94.68 362.88 94.20
  C 360.92 93.92 358.02 93.99 357.07 95.86
  A 1.26 1.12 -11.1 0 0 359.09 97.05
  Q 360.96 95.32 363.04 96.68
  A 1.08 1.08 0.0 0 1 362.59 98.66
  Q 359.69 99.03 358.50 99.31
  A 2.89 2.88 82.6 0 0 356.26 102.22
  C 356.38 105.97 360.20 107.02 362.95 104.99
  A 0.42 0.42 0.0 0 1 363.57 105.13
  Z
  M 376.46 105.00
  Q 376.61 105.94 378.36 105.82
  A 0.51 0.51 0.0 0 0 378.84 105.31
  L 378.84 94.64
  A 0.56 0.56 0.0 0 0 378.28 94.08
  L 376.90 94.08
  A 0.52 0.52 0.0 0 0 376.38 94.60
  L 376.38 101.33
  A 2.33 2.33 0.0 0 1 374.10 103.66
  L 373.82 103.67
  A 2.18 2.18 0.0 0 1 371.49 101.50
  L 371.47 94.75
  A 0.73 0.72 0.0 0 0 370.74 94.03
  L 369.79 94.03
  A 0.81 0.81 0.0 0 0 368.98 94.86
  Q 369.04 97.30 368.99 100.00
  C 368.92 104.18 370.08 106.64 374.58 105.62
  Q 375.16 105.49 375.94 104.81
  A 0.32 0.31 64.9 0 1 376.46 105.00
  Z
  M 389.21 97.38
  A 1.40 1.40 0.0 0 0 389.15 94.70
  C 385.92 93.77 380.19 93.28 381.71 98.85
  A 1.37 1.36 7.1 0 0 382.36 99.68
  Q 384.84 101.05 387.27 101.42
  A 1.03 1.03 0.0 0 1 387.54 103.37
  Q 384.74 104.63 383.79 102.81
  A 1.34 1.31 35.4 0 0 381.29 103.20
  Q 381.20 103.89 382.04 104.60
  C 385.72 107.79 393.69 104.80 389.53 99.86
  A 0.38 0.36 76.4 0 0 389.33 99.73
  L 384.85 98.37
  A 1.13 1.12 38.3 0 1 384.61 96.32
  Q 386.20 95.39 387.87 96.82
  A 2.06 2.01 72.3 0 0 388.66 97.24
  Q 389.20 97.38 389.21 97.38
  Z
  M 395.88 100.71
  L 402.65 100.62
  A 0.38 0.38 0.0 0 0 403.02 100.23
  C 402.91 95.79 401.00 93.33 396.05 94.24
  C 392.96 94.81 392.04 98.63 392.52 101.29
  C 393.44 106.34 399.90 107.90 402.58 103.57
  A 0.68 0.68 0.0 0 0 402.18 102.56
  L 401.42 102.33
  A 1.23 1.21 26.5 0 0 400.11 102.76
  Q 398.18 105.23 395.22 102.41
  A 0.99 0.99 0.0 0 1 395.88 100.71
  Z
  M 413.24 94.62
  A 0.49 0.49 0.0 0 0 412.75 94.13
  L 411.33 94.13
  A 0.49 0.49 0.0 0 0 410.84 94.62
  L 410.84 105.30
  A 0.49 0.49 0.0 0 0 411.33 105.79
  L 412.75 105.79
  A 0.49 0.49 0.0 0 0 413.24 105.30
  L 413.24 94.62
  Z
  M 418.62 94.87
  Q 418.47 93.93 416.73 94.05
  A 0.51 0.51 0.0 0 0 416.25 94.56
  L 416.25 105.20
  A 0.56 0.56 0.0 0 0 416.81 105.76
  L 418.19 105.76
  A 0.52 0.52 0.0 0 0 418.70 105.24
  L 418.70 98.53
  A 2.32 2.32 0.0 0 1 420.98 96.21
  L 421.26 96.20
  A 2.18 2.17 87.9 0 1 423.58 98.36
  L 423.60 105.09
  A 0.73 0.72 -0.0 0 0 424.33 105.81
  L 425.27 105.81
  A 0.81 0.81 0.0 0 0 426.08 104.98
  Q 426.02 102.55 426.07 99.86
  C 426.14 95.69 424.98 93.24 420.50 94.25
  Q 419.92 94.38 419.14 95.06
  A 0.32 0.31 64.9 0 1 418.62 94.87
  Z
  M 460.09 98.88
  A 4.85 4.85 0.0 0 0 455.24 94.03
  L 454.32 94.03
  A 4.85 4.85 0.0 0 0 449.47 98.88
  L 449.47 101.04
  A 4.85 4.85 0.0 0 0 454.32 105.89
  L 455.24 105.89
  A 4.85 4.85 0.0 0 0 460.09 101.04
  L 460.09 98.88
  Z
  M 478.55 100.67
  L 485.29 100.68
  A 0.38 0.38 0.0 0 0 485.67 100.30
  C 485.62 95.87 483.75 93.39 478.80 94.23
  C 475.71 94.75 474.75 98.55 475.18 101.20
  C 476.02 106.25 482.45 107.90 485.17 103.62
  A 0.68 0.68 0.0 0 0 484.80 102.60
  L 484.04 102.37
  A 1.22 1.21 27.4 0 0 482.73 102.78
  Q 480.77 105.21 477.85 102.35
  A 0.99 0.98 67.4 0 1 478.55 100.67
  Z
  M 501.76 97.38
  A 1.40 1.40 0.0 0 0 501.69 94.71
  C 498.47 93.79 492.75 93.31 494.28 98.86
  A 1.36 1.35 7.0 0 0 494.93 99.69
  Q 497.40 101.05 499.83 101.41
  A 1.03 1.02 37.1 0 1 500.10 103.36
  Q 497.31 104.62 496.36 102.80
  A 1.34 1.30 35.3 0 0 493.87 103.20
  Q 493.78 103.88 494.62 104.59
  C 498.29 107.77 506.23 104.77 502.08 99.85
  A 0.38 0.36 76.3 0 0 501.88 99.72
  L 497.41 98.38
  A 1.12 1.12 0.0 0 1 497.17 96.33
  Q 498.75 95.40 500.42 96.82
  A 2.06 2.01 72.2 0 0 501.21 97.24
  Q 501.75 97.38 501.76 97.38
  Z
  M 526.04 94.95
  Q 525.65 93.51 523.77 94.27
  A 0.33 0.32 79.3 0 0 523.57 94.57
  L 523.57 105.25
  A 0.55 0.55 0.0 0 0 524.12 105.80
  L 525.46 105.80
  A 0.58 0.58 0.0 0 0 526.04 105.22
  Q 526.03 102.65 526.02 99.90
  C 526.00 97.55 526.59 96.08 529.11 96.32
  A 0.76 0.76 0.0 0 0 529.94 95.56
  L 529.94 94.90
  A 0.94 0.93 2.7 0 0 529.09 93.97
  C 528.14 93.87 527.17 94.14 526.67 95.03
  A 0.34 0.34 0.0 0 1 526.04 94.95
  Z
  M 538.40 105.15
  Q 538.90 106.05 540.37 105.83
  A 0.58 0.57 80.1 0 0 540.85 105.14
  Q 540.71 104.50 540.83 98.71
  Q 540.91 94.60 537.63 94.14
  C 535.65 93.88 532.73 93.97 531.79 95.86
  A 1.27 1.13 -11.5 0 0 533.83 97.04
  Q 535.70 95.29 537.81 96.64
  A 1.09 1.09 0.0 0 1 537.37 98.64
  Q 534.45 99.03 533.25 99.32
  A 2.91 2.91 0.0 0 0 531.02 102.27
  C 531.16 106.05 535.02 107.08 537.78 105.01
  A 0.42 0.42 0.0 0 1 538.40 105.15
  Z
  M 543.16 100.02
  C 543.24 104.25 545.89 106.76 550.25 105.63
  Q 552.45 105.07 553.26 103.08
  A 0.80 0.80 0.0 0 0 552.75 102.01
  L 552.08 101.80
  A 1.11 1.10 -70.3 0 0 550.73 102.44
  Q 549.95 104.41 547.47 103.48
  C 546.02 102.94 545.64 101.60 545.60 99.98
  C 545.57 98.35 545.90 97.00 547.33 96.40
  Q 549.77 95.38 550.63 97.31
  A 1.11 1.10 68.0 0 0 552.00 97.90
  L 552.67 97.66
  A 0.80 0.80 0.0 0 0 553.13 96.58
  Q 552.25 94.62 550.03 94.14
  C 545.62 93.19 543.08 95.80 543.16 100.02
  Z
  M 558.74 100.68
  L 565.49 100.66
  A 0.38 0.38 0.0 0 0 565.87 100.28
  C 565.81 95.85 563.93 93.36 558.98 94.22
  C 555.88 94.76 554.93 98.57 555.38 101.22
  C 556.24 106.27 562.67 107.90 565.39 103.61
  A 0.68 0.68 0.0 0 0 565.01 102.59
  L 564.25 102.36
  A 1.22 1.21 27.2 0 0 562.94 102.77
  Q 560.99 105.21 558.06 102.36
  A 0.99 0.98 67.2 0 1 558.74 100.68
  Z
  M 580.95 97.83
  Q 581.09 97.83 583.18 104.99
  A 1.43 1.43 0.0 0 0 585.92 105.00
  L 588.99 94.83
  A 0.70 0.69 -88.0 0 0 588.17 93.95
  L 587.24 94.17
  A 0.98 0.97 1.5 0 0 586.53 94.84
  L 584.39 101.91
  A 0.14 0.14 0.0 0 1 584.12 101.90
  L 582.54 95.07
  A 1.40 1.38 14.6 0 0 582.13 94.37
  Q 581.83 94.08 580.95 94.08
  Q 580.07 94.08 579.78 94.37
  A 1.40 1.38 -14.4 0 0 579.36 95.06
  L 577.76 101.89
  A 0.14 0.14 0.0 0 1 577.49 101.90
  L 575.38 94.82
  A 0.98 0.97 -1.3 0 0 574.67 94.15
  L 573.74 93.92
  A 0.70 0.69 88.2 0 0 572.92 94.80
  L 575.95 104.98
  A 1.43 1.43 0.0 0 0 578.69 104.98
  Q 580.80 97.83 580.95 97.83
  Z
  M 593.47 94.62
  A 0.47 0.47 0.0 0 0 593.00 94.15
  L 591.44 94.15
  A 0.47 0.47 0.0 0 0 590.97 94.62
  L 590.97 105.30
  A 0.47 0.47 0.0 0 0 591.44 105.77
  L 593.00 105.77
  A 0.47 0.47 0.0 0 0 593.47 105.30
  L 593.47 94.62
  Z
  M 670.15 107.12
  A 1.07 1.07 0.0 0 1 669.60 107.78
  Q 667.00 109.10 665.36 107.11
  A 1.16 1.16 0.0 0 0 663.79 106.90
  L 663.51 107.10
  A 0.96 0.95 50.4 0 0 663.38 108.55
  C 665.93 111.20 672.67 110.99 673.01 106.46
  Q 673.04 106.16 673.09 95.02
  A 1.06 1.05 82.3 0 0 671.76 94.00
  Q 670.60 94.31 670.60 95.23
  A 0.15 0.15 0.0 0 1 670.32 95.29
  Q 669.89 94.35 668.19 94.12
  Q 663.96 93.56 662.83 97.29
  C 661.92 100.24 662.41 104.18 665.81 105.30
  Q 668.15 106.08 670.19 104.39
  A 0.41 0.41 0.0 0 1 670.84 104.83
  L 670.15 107.12
  Z
  M 678.93 100.67
  L 685.69 100.67
  A 0.38 0.38 0.0 0 0 686.07 100.29
  C 686.02 95.85 684.14 93.36 679.18 94.21
  C 676.08 94.74 675.12 98.55 675.56 101.21
  C 676.41 106.27 682.85 107.91 685.58 103.62
  A 0.68 0.68 0.0 0 0 685.20 102.60
  L 684.44 102.37
  A 1.23 1.21 27.3 0 0 683.13 102.78
  Q 681.17 105.22 678.24 102.36
  A 0.99 0.99 0.0 0 1 678.93 100.67
  Z
  M 690.63 94.91
  Q 690.48 93.97 688.72 94.09
  A 0.51 0.51 0.0 0 0 688.24 94.61
  L 688.30 105.32
  A 0.56 0.56 0.0 0 0 688.86 105.88
  L 690.25 105.87
  A 0.52 0.52 0.0 0 0 690.76 105.35
  L 690.73 98.59
  A 2.34 2.34 0.0 0 1 693.01 96.24
  L 693.29 96.23
  A 2.19 2.19 0.0 0 1 695.64 98.40
  L 695.69 105.17
  A 0.73 0.72 -0.3 0 0 696.43 105.89
  L 697.38 105.89
  A 0.81 0.81 0.0 0 0 698.19 105.05
  Q 698.12 102.60 698.16 99.89
  C 698.21 95.70 697.03 93.23 692.52 94.28
  Q 691.94 94.41 691.16 95.10
  A 0.32 0.32 0.0 0 1 690.63 94.91
  Z
  M 715.50 97.38
  A 1.40 1.40 0.0 0 0 715.45 94.71
  C 712.23 93.78 706.51 93.28 708.02 98.84
  A 1.37 1.36 7.2 0 0 708.66 99.67
  Q 711.14 101.04 713.56 101.41
  A 1.03 1.02 37.3 0 1 713.83 103.36
  Q 711.03 104.61 710.09 102.79
  A 1.34 1.30 35.5 0 0 707.59 103.18
  Q 707.50 103.87 708.34 104.58
  C 712.00 107.77 719.96 104.79 715.82 99.86
  A 0.38 0.36 76.5 0 0 715.62 99.73
  L 711.15 98.36
  A 1.12 1.12 0.0 0 1 710.91 96.32
  Q 712.50 95.39 714.17 96.82
  A 2.06 2.01 72.4 0 0 714.95 97.24
  Q 715.49 97.38 715.50 97.38
  Z
  M 740.2730 97.1215
  A 0.76 0.76 0.0 0 0 739.5144 96.3602
  L 739.2944 96.3598
  A 0.76 0.76 0.0 0 0 738.5330 97.1185
  L 738.5270 100.5985
  A 0.76 0.76 0.0 0 0 739.2856 101.3598
  L 739.5056 101.3602
  A 0.76 0.76 0.0 0 0 740.2670 100.6015
  L 740.2730 97.1215
  Z
  M 758.0436 96.9250
  A 0.55 0.55 0.0 0 0 757.4974 96.3712
  L 757.1775 96.3689
  A 0.55 0.55 0.0 0 0 756.6236 96.9151
  L 756.5964 100.8150
  A 0.55 0.55 0.0 0 0 757.1426 101.3688
  L 757.4625 101.3711
  A 0.55 0.55 0.0 0 0 758.0164 100.8249
  L 758.0436 96.9250
  Z
  M 770.22 100.48
  Q 770.22 100.68 770.29 100.77
  Q 772.47 103.32 773.19 103.64
  A 0.78 0.77 86.0 0 0 774.16 102.52
  C 773.75 101.86 772.32 100.81 772.32 100.47
  C 772.32 100.11 773.75 99.06 774.16 98.40
  A 0.78 0.77 -86.0 0 0 773.19 97.28
  Q 772.47 97.60 770.29 100.15
  Q 770.22 100.23 770.22 100.48
  Z
  M 780.05 100.39
  Q 780.04 100.18 779.97 100.10
  Q 777.77 97.59 777.05 97.28
  A 0.77 0.77 0.0 0 0 776.10 98.41
  C 776.52 99.06 777.96 100.09 777.96 100.42
  C 777.96 100.78 776.55 101.84 776.15 102.50
  A 0.77 0.77 0.0 0 0 777.13 103.60
  Q 777.84 103.28 779.98 100.71
  Q 780.05 100.63 780.05 100.39
  Z
  M 810.80 102.72
  L 813.60 106.75
  A 0.27 0.27 0.0 0 0 813.97 106.82
  L 814.27 106.62
  A 0.64 0.64 0.0 0 0 814.43 105.74
  L 811.26 101.18
  A 0.79 0.79 0.0 0 0 810.47 100.85
  C 807.53 101.36 806.68 103.64 805.22 106.33
  A 0.26 0.26 0.0 0 0 805.32 106.69
  L 805.61 106.86
  A 0.66 0.66 0.0 0 0 806.51 106.62
  L 808.40 103.34
  A 0.38 0.37 60.1 0 1 809.10 103.53
  L 809.10 107.31
  A 0.44 0.43 -90.0 0 0 809.53 107.75
  L 809.78 107.75
  A 0.85 0.85 0.0 0 0 810.63 106.90
  L 810.63 102.77
  A 0.09 0.09 0.0 0 1 810.80 102.72
  Z"
/>
<path fill="#116932" d="
  M 748.39 88.73
  Q 749.10 88.74 749.45 89.43
  A 0.75 0.72 41.1 0 1 749.50 89.96
  L 749.07 91.40
  A 0.64 0.64 0.0 0 0 749.60 92.22
  C 751.92 92.50 755.75 91.46 755.71 95.00
  Q 755.71 95.48 755.63 102.71
  C 755.59 106.26 751.42 105.42 748.25 105.39
  C 745.08 105.36 740.90 106.13 740.92 102.58
  Q 740.96 95.35 740.97 94.87
  C 740.99 91.33 744.80 92.44 747.13 92.20
  A 0.64 0.64 0.0 0 0 747.67 91.39
  L 747.27 89.94
  A 0.75 0.72 -40.1 0 1 747.32 89.41
  Q 747.68 88.72 748.39 88.73
  Z
  M 754.0770 94.8798
  A 0.80 0.80 0.0 0 0 753.2784 94.0784
  L 743.6184 94.0616
  A 0.80 0.80 0.0 0 0 742.8170 94.8602
  L 742.8030 102.8802
  A 0.80 0.80 0.0 0 0 743.6016 103.6816
  L 753.2616 103.6984
  A 0.80 0.80 0.0 0 0 754.0630 102.8998
  L 754.0770 94.8798
  Z"
/>
<path fill="#116932" d="
  M 784.22 95.48
  Q 779.54 96.08 780.11 91.68
  A 0.95 0.95 0.0 0 0 779.17 90.61
  L 774.55 90.61
  A 0.97 0.97 0.0 0 0 773.58 91.58
  L 773.58 94.67
  A 0.71 0.71 0.0 0 1 772.87 95.38
  L 772.39 95.38
  A 0.63 0.62 0.0 0 1 771.76 94.76
  L 771.76 91.50
  A 2.41 2.41 0.0 0 1 774.17 89.09
  L 781.22 89.09
  A 2.19 2.17 67.3 0 1 782.76 89.73
  L 786.13 93.10
  A 1.47 1.47 0.0 0 1 786.56 94.14
  L 786.56 104.63
  A 2.30 2.30 0.0 0 1 784.26 106.93
  L 772.70 106.93
  A 0.84 0.84 0.0 0 1 771.86 106.09
  L 771.86 105.82
  A 0.45 0.45 0.0 0 1 772.31 105.37
  L 784.13 105.37
  A 0.90 0.90 0.0 0 0 785.03 104.47
  L 785.03 96.19
  A 0.72 0.71 86.1 0 0 784.22 95.48
  Z
  M 781.86 93.71
  Q 782.20 94.06 783.74 94.02
  A 0.42 0.42 0.0 0 0 784.12 93.44
  Q 784.08 93.35 783.18 92.43
  Q 782.28 91.50 782.19 91.46
  A 0.42 0.42 0.0 0 0 781.60 91.82
  Q 781.52 93.36 781.86 93.71
  Z"
/>
<path fill="#116932" d="
  M 816.97 90.01
  L 818.67 93.64
  A 1.88 1.88 0.0 0 1 817.77 96.14
  L 803.75 102.73
  A 1.88 1.88 0.0 0 1 801.25 101.83
  L 800.66 100.56
  A 1.88 1.88 0.0 0 1 801.29 98.21
  L 814.19 89.27
  A 1.88 1.88 0.0 0 1 816.97 90.01
  Z
  M 817.76 94.22
  L 815.46 90.36
  A 0.28 0.28 0.0 0 0 815.08 90.26
  L 813.42 91.25
  A 1.31 0.77 -30.8 0 0 812.69 92.58
  L 814.49 95.60
  A 1.31 0.77 -30.8 0 0 816.01 95.59
  L 817.67 94.61
  A 0.28 0.28 0.0 0 0 817.76 94.22
  Z
  M 813.33 96.19
  L 811.56 93.19
  A 0.25 0.25 0.0 0 0 811.21 93.11
  L 808.25 94.86
  A 4.11 0.92 -30.7 0 0 805.19 97.75
  L 806.28 99.59
  A 4.11 0.92 -30.7 0 0 810.29 98.28
  L 813.24 96.53
  A 0.25 0.25 0.0 0 0 813.33 96.19
  Z
  M 804.4437 98.7956
  A 0.80 0.80 0.0 0 0 803.3683 98.4441
  L 802.2268 99.0232
  A 0.80 0.80 0.0 0 0 801.8753 100.0986
  L 802.4363 101.2044
  A 0.80 0.80 0.0 0 0 803.5117 101.5559
  L 804.6532 100.9768
  A 0.80 0.80 0.0 0 0 805.0047 99.9014
  L 804.4437 98.7956
  Z"
/>
<rect fill="#116932" x="-1.41" y="-1.30" transform="translate(219.97,91.09) rotate(2.1)" width="2.82" height="2.60" rx="0.99"/>
<rect fill="#116932" x="-1.46" y="-1.34" transform="translate(412.07,91.03) rotate(4.2)" width="2.92" height="2.68" rx="1.02"/>
<circle fill="#116932" cx="592.28" cy="91.02" r="1.47"/>
<path fill="#116932" d="
  M 243.97 104.57
  C 242.81 105.65 241.80 106.38 240.17 105.94
  C 234.74 104.49 234.60 94.65 240.13 94.08
  Q 242.79 93.80 243.93 95.17
  A 0.27 0.27 0.0 0 0 244.40 95.00
  L 244.40 90.72
  A 0.63 0.63 0.0 0 1 245.03 90.09
  L 246.25 90.09
  A 0.63 0.63 0.0 0 1 246.88 90.72
  L 246.88 105.26
  A 0.76 0.70 -42.6 0 1 246.87 105.38
  Q 246.60 106.24 244.99 105.69
  A 0.80 0.79 -82.7 0 1 244.46 105.00
  Q 244.45 104.91 244.45 104.78
  A 0.29 0.29 0.0 0 0 243.97 104.57
  Z
  M 241.4735 96.0500
  A 3.87 2.94 -89.8 0 0 238.5200 99.9097
  A 3.87 2.94 -89.8 0 0 241.4465 103.7900
  A 3.87 2.94 -89.8 0 0 244.4000 99.9303
  A 3.87 2.94 -89.8 0 0 241.4735 96.0500
  Z"
/>
<path fill="#116932" d="
  M 265.24 95.10
  C 267.53 93.37 271.71 93.53 271.99 97.16
  Q 272.24 100.45 272.15 105.19
  A 0.63 0.62 -89.5 0 1 271.53 105.81
  L 270.37 105.81
  A 0.64 0.63 90.0 0 1 269.74 105.17
  L 269.74 98.40
  A 2.21 2.21 0.0 0 0 267.38 96.20
  L 267.13 96.22
  A 2.34 2.34 0.0 0 0 264.80 98.55
  L 264.77 105.19
  A 0.61 0.61 0.0 0 1 264.16 105.80
  L 263.00 105.80
  A 0.64 0.64 0.0 0 1 262.36 105.16
  L 262.36 90.69
  A 0.60 0.59 -90.0 0 1 262.95 90.09
  L 264.11 90.09
  A 0.63 0.62 -90.0 0 1 264.73 90.72
  L 264.73 94.85
  A 0.32 0.32 0.0 0 0 265.24 95.10
  Z"
/>
<path fill="#116932" d="
  M 304.47 105.24
  A 0.40 0.40 0.0 0 1 304.11 105.81
  L 302.45 105.81
  A 0.97 0.97 0.0 0 1 301.57 105.25
  L 299.22 100.25
  A 0.77 0.76 77.0 0 0 298.53 99.81
  L 296.36 99.81
  A 0.56 0.56 0.0 0 0 295.80 100.37
  L 295.80 105.22
  A 0.57 0.57 0.0 0 1 295.23 105.79
  L 293.76 105.79
  A 0.57 0.57 0.0 0 1 293.19 105.22
  L 293.19 90.81
  A 0.65 0.65 0.0 0 1 293.82 90.16
  Q 299.38 89.99 300.92 90.47
  C 305.04 91.75 305.40 97.06 302.10 99.24
  A 0.48 0.46 -29.8 0 0 301.93 99.83
  L 304.47 105.24
  Z
  M 295.79 92.67
  L 295.81 97.41
  A 0.28 0.28 0.0 0 0 296.09 97.69
  L 299.02 97.68
  A 2.63 2.17 -0.2 0 0 301.64 95.50
  L 301.64 94.54
  A 2.63 2.17 -0.2 0 0 299.00 92.38
  L 296.07 92.39
  A 0.28 0.28 0.0 0 0 295.79 92.67
  Z"
/>
<path fill="#116932" d="
  M 436.59 97.95
  C 436.59 100.03 437.64 102.91 439.95 103.43
  Q 443.24 104.16 444.70 101.19
  A 1.02 1.01 -76.8 0 1 445.61 100.62
  L 446.91 100.62
  A 0.55 0.55 0.0 0 1 447.43 101.35
  C 444.64 109.35 433.94 106.27 433.95 97.95
  C 433.96 89.62 444.66 86.56 447.44 94.57
  A 0.55 0.55 0.0 0 1 446.92 95.30
  L 445.62 95.30
  A 1.02 1.01 76.9 0 1 444.71 94.73
  Q 443.25 91.75 439.96 92.48
  C 437.65 92.99 436.60 95.87 436.59 97.95
  Z"
/>
<path fill="#116932" d="
  M 470.38 104.79
  A 0.29 0.29 0.0 0 0 469.90 104.58
  C 468.73 105.66 467.72 106.39 466.09 105.94
  C 460.66 104.47 460.55 94.62 466.09 94.07
  Q 468.75 93.80 469.89 95.17
  A 0.27 0.27 0.0 0 0 470.36 95.00
  L 470.37 90.72
  A 0.63 0.63 0.0 0 1 471.00 90.09
  L 472.23 90.09
  A 0.63 0.63 0.0 0 1 472.86 90.73
  L 472.81 105.28
  A 0.76 0.70 -42.4 0 1 472.80 105.40
  Q 472.53 106.26 470.92 105.71
  A 0.80 0.79 -82.5 0 1 470.39 105.01
  Q 470.38 104.92 470.38 104.79
  Z
  M 467.4567 96.0600
  A 3.86 2.96 -89.9 0 0 464.4900 99.9148
  A 3.86 2.96 -89.9 0 0 467.4433 103.7800
  A 3.86 2.96 -89.9 0 0 470.4100 99.9252
  A 3.86 2.96 -89.9 0 0 467.4567 96.0600
  Z"
/>
<rect fill="#116932" x="-1.17" y="-3.14" transform="translate(489.37,93.25) rotate(-0.3)" width="2.34" height="6.28" rx="0.49"/>
<path fill="#116932" d="
  M 516.54 90.15
  Q 519.36 90.16 521.87 90.13
  A 0.67 0.66 -0.2 0 1 522.55 90.79
  L 522.55 91.83
  A 0.56 0.55 -0.0 0 1 521.99 92.38
  L 518.31 92.38
  A 0.52 0.51 90.0 0 0 517.80 92.90
  L 517.80 105.26
  A 0.52 0.51 -4.3 0 1 517.36 105.77
  Q 517.15 105.79 516.56 105.79
  Q 515.96 105.80 515.76 105.77
  A 0.52 0.51 4.2 0 1 515.31 105.26
  L 515.29 92.90
  A 0.52 0.51 89.9 0 0 514.78 92.38
  L 511.10 92.39
  A 0.56 0.55 -0.1 0 1 510.54 91.84
  L 510.54 90.80
  A 0.67 0.66 0.1 0 1 511.22 90.13
  Q 513.73 90.17 516.54 90.15
  Z"
/>
<path fill="#116932" d="
  M 606.05 94.87
  A 0.32 0.32 0.0 0 0 606.56 95.12
  C 608.84 93.39 613.02 93.54 613.31 97.17
  Q 613.56 100.45 613.48 105.19
  A 0.63 0.62 -89.6 0 1 612.86 105.81
  L 611.70 105.81
  A 0.64 0.63 89.9 0 1 611.07 105.17
  L 611.06 98.41
  A 2.21 2.20 -2.0 0 0 608.70 96.22
  L 608.45 96.24
  A 2.34 2.34 0.0 0 0 606.12 98.57
  L 606.10 105.20
  A 0.61 0.61 0.0 0 1 605.50 105.81
  L 604.34 105.81
  A 0.64 0.64 0.0 0 1 603.70 105.18
  L 603.67 90.72
  A 0.60 0.59 89.9 0 1 604.26 90.12
  L 605.42 90.11
  A 0.63 0.62 89.9 0 1 606.04 90.74
  L 606.05 94.87
  Z"
/>
<rect fill="#116932" x="637.09" y="90.13" width="2.44" height="15.68" rx="0.49"/>
<path fill="#116932" d="
  M 654.18 90.14
  Q 654.68 90.13 655.15 90.21
  A 1.00 1.00 0.0 0 1 655.94 90.86
  L 661.10 105.07
  A 0.52 0.52 0.0 0 1 660.61 105.77
  L 659.21 105.77
  A 0.91 0.91 0.0 0 1 658.36 105.18
  L 657.32 102.30
  A 1.02 1.02 0.0 0 0 656.38 101.63
  Q 655.65 101.61 654.19 101.61
  Q 652.73 101.61 652.00 101.63
  A 1.02 1.02 0.0 0 0 651.07 102.31
  L 650.04 105.20
  A 0.91 0.91 0.0 0 1 649.19 105.79
  L 647.79 105.79
  A 0.52 0.52 0.0 0 1 647.30 105.10
  L 652.41 90.87
  A 1.00 1.00 0.0 0 1 653.19 90.21
  Q 653.67 90.14 654.18 90.14
  Z
  M 654.20 99.47
  Q 654.89 99.46 655.78 99.44
  A 0.49 0.49 0.0 0 0 656.23 98.79
  Q 654.26 93.14 654.09 93.15
  Q 653.91 93.15 652.15 98.86
  A 0.49 0.49 0.0 0 0 652.63 99.49
  Q 653.52 99.49 654.20 99.47
  Z"
/>
<path fill="#116932" d="
  M 206.93 90.30
  L 215.81 90.30
  A 0.41 0.41 0.0 0 1 216.22 90.71
  L 216.22 91.87
  A 0.41 0.41 0.0 0 1 215.81 92.28
  L 209.32 92.28
  A 0.41 0.41 0.0 0 0 208.91 92.69
  L 208.91 96.75
  A 0.41 0.41 0.0 0 0 209.32 97.16
  L 215.03 97.16
  A 0.41 0.41 0.0 0 1 215.44 97.57
  L 215.44 98.85
  A 0.41 0.41 0.0 0 1 215.03 99.26
  L 209.41 99.26
  A 0.41 0.41 0.0 0 0 209.00 99.67
  L 209.00 105.38
  A 0.41 0.41 0.0 0 1 208.59 105.79
  L 206.93 105.79
  A 0.41 0.41 0.0 0 1 206.52 105.38
  L 206.52 90.71
  A 0.41 0.41 0.0 0 1 206.93 90.30
  Z"
/>
<path fill="#116932" d="
  M 627.88 101.62
  Q 626.42 101.62 625.69 101.64
  A 1.02 1.02 0.0 0 0 624.76 102.31
  L 623.72 105.19
  A 0.91 0.91 0.0 0 1 622.87 105.78
  L 621.47 105.78
  A 0.52 0.52 0.0 0 1 620.98 105.08
  L 626.12 90.88
  A 1.00 1.00 0.0 0 1 626.91 90.22
  Q 627.38 90.15 627.90 90.15
  Q 628.39 90.15 628.87 90.23
  A 1.00 1.00 0.0 0 1 629.65 90.88
  L 634.77 105.09
  A 0.52 0.52 0.0 0 1 634.28 105.79
  L 632.88 105.79
  A 0.91 0.91 0.0 0 1 632.04 105.20
  L 631.00 102.31
  A 1.02 1.02 0.0 0 0 630.07 101.64
  Q 629.34 101.62 627.88 101.62
  Z
  M 627.83 99.47
  Q 628.51 99.48 629.41 99.48
  A 0.49 0.49 0.0 0 0 629.88 98.85
  Q 628.08 93.11 627.90 93.11
  Q 627.73 93.11 625.79 98.79
  A 0.49 0.49 0.0 0 0 626.24 99.44
  Q 627.14 99.46 627.83 99.47
  Z"
/>
<path fill="#ecfcf4" d="
  M 817.76 94.22
  A 0.28 0.28 0.0 0 1 817.67 94.61
  L 816.01 95.59
  A 1.31 0.77 -30.8 0 1 814.49 95.60
  L 812.69 92.58
  A 1.31 0.77 -30.8 0 1 813.42 91.25
  L 815.08 90.26
  A 0.28 0.28 0.0 0 1 815.46 90.36
  L 817.76 94.22
  Z"
/>
<path fill="#116932" d="
  M 258.62 96.11
  A 0.64 0.64 0.0 0 0 257.98 96.74
  L 257.96 102.83
  A 0.57 0.49 -63.7 0 0 258.03 103.10
  Q 258.47 103.85 259.55 103.63
  A 0.77 0.77 0.0 0 1 260.47 104.39
  L 260.47 105.20
  A 0.70 0.68 -3.1 0 1 259.85 105.87
  C 256.78 106.19 255.56 104.90 255.57 101.63
  Q 255.60 97.43 255.65 96.82
  A 0.57 0.56 -84.6 0 0 255.15 96.21
  Q 253.88 96.06 253.70 95.09
  A 0.66 0.66 0.0 0 1 254.31 94.31
  Q 256.17 94.19 255.50 92.24
  A 0.65 0.65 0.0 0 1 256.12 91.38
  L 257.36 91.38
  A 0.61 0.61 0.0 0 1 257.97 91.99
  L 257.97 93.65
  A 0.53 0.53 0.0 0 0 258.49 94.17
  L 259.67 94.18
  A 0.70 0.69 -89.8 0 1 260.35 94.88
  L 260.35 95.43
  A 0.68 0.68 0.0 0 1 259.67 96.11
  L 258.62 96.11
  Z"
/>
<path fill="#116932" d="
  M 335.27 96.09
  A 0.64 0.64 0.0 0 0 334.62 96.73
  L 334.59 102.84
  A 0.57 0.49 -63.5 0 0 334.65 103.11
  Q 335.10 103.87 336.18 103.65
  A 0.77 0.77 0.0 0 1 337.10 104.42
  L 337.10 105.23
  A 0.70 0.68 -2.9 0 1 336.48 105.90
  C 333.40 106.21 332.18 104.91 332.20 101.63
  Q 332.23 97.41 332.29 96.81
  A 0.57 0.56 -84.4 0 0 331.79 96.19
  Q 330.51 96.04 330.34 95.06
  A 0.66 0.66 0.0 0 1 330.95 94.28
  Q 332.82 94.16 332.15 92.21
  A 0.66 0.66 0.0 0 1 332.78 91.34
  L 334.03 91.35
  A 0.61 0.61 0.0 0 1 334.63 91.97
  L 334.62 93.62
  A 0.53 0.53 0.0 0 0 335.15 94.16
  L 336.33 94.16
  A 0.70 0.69 -89.6 0 1 337.01 94.87
  L 337.01 95.43
  A 0.68 0.68 0.0 0 1 336.33 96.10
  L 335.27 96.09
  Z"
/>
<path fill="#116932" d="
  M 599.32 96.75
  L 599.32 102.87
  A 0.57 0.49 -63.9 0 0 599.39 103.14
  Q 599.84 103.89 600.92 103.67
  A 0.78 0.77 84.2 0 1 601.85 104.43
  L 601.85 105.24
  A 0.70 0.68 -3.3 0 1 601.23 105.92
  C 598.15 106.25 596.92 104.95 596.92 101.67
  Q 596.93 97.45 596.98 96.84
  A 0.57 0.56 -84.8 0 0 596.48 96.23
  Q 595.20 96.08 595.02 95.10
  A 0.67 0.66 -7.0 0 1 595.63 94.32
  Q 597.50 94.19 596.82 92.24
  A 0.66 0.66 0.0 0 1 597.44 91.37
  L 598.69 91.37
  A 0.61 0.61 0.0 0 1 599.30 91.98
  L 599.30 93.64
  A 0.53 0.53 0.0 0 0 599.83 94.17
  L 601.01 94.17
  A 0.70 0.69 -90.0 0 1 601.70 94.87
  L 601.70 95.43
  A 0.68 0.68 0.0 0 1 601.02 96.11
  L 599.96 96.11
  A 0.64 0.64 0.0 0 0 599.32 96.75
  Z"
/>
<path fill="#116932" d="
  M 704.35 96.10
  A 0.64 0.64 0.0 0 0 703.71 96.73
  L 703.68 102.85
  A 0.57 0.49 -63.6 0 0 703.75 103.12
  Q 704.20 103.87 705.28 103.65
  A 0.77 0.77 0.0 0 1 706.20 104.42
  L 706.20 105.23
  A 0.70 0.68 -3.0 0 1 705.57 105.90
  C 702.50 106.22 701.27 104.91 701.29 101.64
  Q 701.32 97.42 701.37 96.81
  A 0.57 0.56 -84.5 0 0 700.88 96.20
  Q 699.60 96.05 699.42 95.07
  A 0.66 0.66 0.0 0 1 700.04 94.29
  Q 701.90 94.17 701.23 92.22
  A 0.66 0.66 0.0 0 1 701.86 91.35
  L 703.11 91.36
  A 0.61 0.61 0.0 0 1 703.71 91.97
  L 703.71 93.63
  A 0.53 0.53 0.0 0 0 704.23 94.16
  L 705.41 94.17
  A 0.70 0.69 -89.7 0 1 706.10 94.87
  L 706.09 95.43
  A 0.68 0.68 0.0 0 1 705.41 96.10
  L 704.35 96.10
  Z"
/>
<path fill="#ecfcf4" d="
  M 783.18 92.43
  Q 784.08 93.35 784.12 93.44
  A 0.42 0.42 0.0 0 1 783.74 94.02
  Q 782.20 94.06 781.86 93.71
  Q 781.52 93.36 781.60 91.82
  A 0.42 0.42 0.0 0 1 782.19 91.46
  Q 782.28 91.50 783.18 92.43
  Z"
/>
<path fill="#ecfcf4" d="
  M 295.79 92.67
  A 0.28 0.28 0.0 0 1 296.07 92.39
  L 299.00 92.38
  A 2.63 2.17 -0.2 0 1 301.64 94.54
  L 301.64 95.50
  A 2.63 2.17 -0.2 0 1 299.02 97.68
  L 296.09 97.69
  A 0.28 0.28 0.0 0 1 295.81 97.41
  L 295.79 92.67
  Z"
/>
<path fill="#ecfcf4" d="
  M 627.83 99.47
  Q 627.14 99.46 626.24 99.44
  A 0.49 0.49 0.0 0 1 625.79 98.79
  Q 627.73 93.11 627.90 93.11
  Q 628.08 93.11 629.88 98.85
  A 0.49 0.49 0.0 0 1 629.41 99.48
  Q 628.51 99.48 627.83 99.47
  Z"
/>
<path fill="#ecfcf4" d="
  M 654.09 93.15
  Q 654.26 93.14 656.23 98.79
  A 0.49 0.49 0.0 0 1 655.78 99.44
  Q 654.89 99.46 654.20 99.47
  Q 653.52 99.49 652.63 99.49
  A 0.49 0.49 0.0 0 1 652.15 98.86
  Q 653.91 93.15 654.09 93.15
  Z"
/>
<path fill="#ecfcf4" d="
  M 813.33 96.19
  A 0.25 0.25 0.0 0 1 813.24 96.53
  L 810.29 98.28
  A 4.11 0.92 -30.7 0 1 806.28 99.59
  L 805.19 97.75
  A 4.11 0.92 -30.7 0 1 808.25 94.86
  L 811.21 93.11
  A 0.25 0.25 0.0 0 1 811.56 93.19
  L 813.33 96.19
  Z"
/>
<rect fill="#116932" x="218.81" y="94.11" width="2.34" height="11.76" rx="0.67"/>
<path fill="#116932" d="
  M 226.44 94.87
  A 0.31 0.31 0.0 0 0 226.96 95.06
  Q 227.73 94.39 228.31 94.26
  C 232.79 93.24 233.94 95.69 233.87 99.85
  Q 233.82 102.53 233.88 104.96
  A 0.81 0.81 0.0 0 1 233.07 105.78
  L 232.13 105.78
  A 0.73 0.72 0.0 0 1 231.40 105.07
  L 231.38 98.35
  A 2.17 2.17 0.0 0 0 229.07 96.20
  L 228.79 96.21
  A 2.32 2.32 0.0 0 0 226.52 98.52
  L 226.52 105.21
  A 0.52 0.52 0.0 0 1 226.00 105.73
  L 224.63 105.73
  A 0.56 0.56 0.0 0 1 224.07 105.17
  L 224.07 94.56
  A 0.51 0.51 0.0 0 1 224.55 94.06
  Q 226.29 93.94 226.44 94.87
  Z"
/>
<path fill="#116932" d="
  M 278.14 100.68
  A 0.99 0.99 0.0 0 0 277.46 102.38
  Q 280.41 105.23 282.36 102.77
  A 1.23 1.21 27.0 0 1 283.67 102.36
  L 284.43 102.58
  A 0.68 0.68 0.0 0 1 284.81 103.60
  C 282.10 107.91 275.65 106.31 274.77 101.24
  C 274.31 98.58 275.25 94.76 278.35 94.21
  C 283.32 93.34 285.21 95.82 285.29 100.27
  A 0.38 0.38 0.0 0 1 284.91 100.65
  L 278.14 100.68
  Z
  M 277.43 98.88
  L 282.51 98.78
  A 0.19 0.19 0.0 0 0 282.69 98.59
  L 282.69 98.47
  A 2.58 2.43 -1.1 0 0 280.06 96.09
  L 279.76 96.09
  A 2.58 2.43 -1.1 0 0 277.23 98.57
  L 277.23 98.69
  A 0.19 0.19 0.0 0 0 277.43 98.88
  Z"
/>
<path fill="#116932" d="
  M 316.65 101.03
  A 4.84 4.84 0.0 0 1 311.81 105.87
  L 310.91 105.87
  A 4.84 4.84 0.0 0 1 306.07 101.03
  L 306.07 98.87
  A 4.84 4.84 0.0 0 1 310.91 94.03
  L 311.81 94.03
  A 4.84 4.84 0.0 0 1 316.65 98.87
  L 316.65 101.03
  Z
  M 311.3094 96.0101
  A 3.93 2.94 -90.3 0 0 308.3900 99.9554
  A 3.93 2.94 -90.3 0 0 311.3506 103.8699
  A 3.93 2.94 -90.3 0 0 314.2700 99.9246
  A 3.93 2.94 -90.3 0 0 311.3094 96.0101
  Z"
/>
<path fill="#116932" d="
  M 324.1337 93.8703
  A 6.08 5.58 -89.4 0 1 329.6497 100.0084
  A 6.08 5.58 -89.4 0 1 324.0063 106.0297
  A 6.08 5.58 -89.4 0 1 318.4903 99.8916
  A 6.08 5.58 -89.4 0 1 324.1337 93.8703
  Z
  M 324.0530 96.0601
  A 3.87 3.06 -90.4 0 0 321.0201 99.9514
  A 3.87 3.06 -90.4 0 0 324.1070 103.7999
  A 3.87 3.06 -90.4 0 0 327.1399 99.9086
  A 3.87 3.06 -90.4 0 0 324.0530 96.0601
  Z"
/>
<path fill="#116932" d="
  M 346.57 100.01
  C 346.61 101.64 347.00 102.98 348.45 103.52
  Q 350.94 104.43 351.72 102.46
  A 1.11 1.10 -70.6 0 1 353.06 101.81
  L 353.74 102.02
  A 0.80 0.80 0.0 0 1 354.25 103.08
  Q 353.45 105.08 351.25 105.65
  C 346.89 106.80 344.23 104.30 344.12 100.07
  C 344.02 95.85 346.56 93.22 350.97 94.15
  Q 353.20 94.62 354.09 96.58
  A 0.80 0.80 0.0 0 1 353.63 97.66
  L 352.96 97.90
  A 1.11 1.10 67.8 0 1 351.59 97.32
  Q 350.72 95.39 348.28 96.43
  C 346.86 97.03 346.53 98.38 346.57 100.01
  Z"
/>
<path fill="#116932" d="
  M 362.95 104.99
  C 360.20 107.02 356.38 105.97 356.26 102.22
  A 2.89 2.88 82.6 0 1 358.50 99.31
  Q 359.69 99.03 362.59 98.66
  A 1.08 1.08 0.0 0 0 363.04 96.68
  Q 360.96 95.32 359.09 97.05
  A 1.26 1.12 -11.1 0 1 357.07 95.86
  C 358.02 93.99 360.92 93.92 362.88 94.20
  Q 366.14 94.68 366.03 98.76
  Q 365.87 104.50 366.00 105.14
  A 0.57 0.57 0.0 0 1 365.52 105.82
  Q 364.06 106.03 363.57 105.13
  A 0.42 0.42 0.0 0 0 362.95 104.99
  Z
  M 362.54 100.49
  L 359.43 101.21
  A 1.18 1.18 0.0 0 0 359.14 103.41
  Q 361.91 104.88 363.62 101.95
  A 0.99 0.99 0.0 0 0 362.54 100.49
  Z"
/>
<path fill="#116932" d="
  M 375.94 104.81
  Q 375.16 105.49 374.58 105.62
  C 370.08 106.64 368.92 104.18 368.99 100.00
  Q 369.04 97.30 368.98 94.86
  A 0.81 0.81 0.0 0 1 369.79 94.03
  L 370.74 94.03
  A 0.73 0.72 0.0 0 1 371.47 94.75
  L 371.49 101.50
  A 2.18 2.18 0.0 0 0 373.82 103.67
  L 374.10 103.66
  A 2.33 2.33 0.0 0 0 376.38 101.33
  L 376.38 94.60
  A 0.52 0.52 0.0 0 1 376.90 94.08
  L 378.28 94.08
  A 0.56 0.56 0.0 0 1 378.84 94.64
  L 378.84 105.31
  A 0.51 0.51 0.0 0 1 378.36 105.82
  Q 376.61 105.94 376.46 105.00
  A 0.32 0.31 64.9 0 0 375.94 104.81
  Z"
/>
<path fill="#116932" d="
  M 389.21 97.38
  Q 389.20 97.38 388.66 97.24
  A 2.06 2.01 72.3 0 1 387.87 96.82
  Q 386.20 95.39 384.61 96.32
  A 1.13 1.12 38.3 0 0 384.85 98.37
  L 389.33 99.73
  A 0.38 0.36 76.4 0 1 389.53 99.86
  C 393.69 104.80 385.72 107.79 382.04 104.60
  Q 381.20 103.89 381.29 103.20
  A 1.34 1.31 35.4 0 1 383.79 102.81
  Q 384.74 104.63 387.54 103.37
  A 1.03 1.03 0.0 0 0 387.27 101.42
  Q 384.84 101.05 382.36 99.68
  A 1.37 1.36 7.1 0 1 381.71 98.85
  C 380.19 93.28 385.92 93.77 389.15 94.70
  A 1.40 1.40 0.0 0 1 389.21 97.38
  Z"
/>
<path fill="#116932" d="
  M 395.88 100.71
  A 0.99 0.99 0.0 0 0 395.22 102.41
  Q 398.18 105.23 400.11 102.76
  A 1.23 1.21 26.5 0 1 401.42 102.33
  L 402.18 102.56
  A 0.68 0.68 0.0 0 1 402.58 103.57
  C 399.90 107.90 393.44 106.34 392.52 101.29
  C 392.04 98.63 392.96 94.81 396.05 94.24
  C 401.00 93.33 402.91 95.79 403.02 100.23
  A 0.38 0.38 0.0 0 1 402.65 100.62
  L 395.88 100.71
  Z
  M 395.27 98.90
  L 400.23 98.78
  A 0.20 0.20 0.0 0 0 400.43 98.58
  L 400.42 98.47
  A 2.54 2.45 -1.3 0 0 397.83 96.08
  L 397.55 96.08
  A 2.54 2.45 -1.3 0 0 395.06 98.59
  L 395.07 98.70
  A 0.20 0.20 0.0 0 0 395.27 98.90
  Z"
/>
<rect fill="#116932" x="410.84" y="94.13" width="2.40" height="11.66" rx="0.49"/>
<path fill="#116932" d="
  M 418.62 94.87
  A 0.32 0.31 64.9 0 0 419.14 95.06
  Q 419.92 94.38 420.50 94.25
  C 424.98 93.24 426.14 95.69 426.07 99.86
  Q 426.02 102.55 426.08 104.98
  A 0.81 0.81 0.0 0 1 425.27 105.81
  L 424.33 105.81
  A 0.73 0.72 -0.0 0 1 423.60 105.09
  L 423.58 98.36
  A 2.18 2.17 87.9 0 0 421.26 96.20
  L 420.98 96.21
  A 2.32 2.32 0.0 0 0 418.70 98.53
  L 418.70 105.24
  A 0.52 0.52 0.0 0 1 418.19 105.76
  L 416.81 105.76
  A 0.56 0.56 0.0 0 1 416.25 105.20
  L 416.25 94.56
  A 0.51 0.51 0.0 0 1 416.73 94.05
  Q 418.47 93.93 418.62 94.87
  Z"
/>
<path fill="#116932" d="
  M 460.09 101.04
  A 4.85 4.85 0.0 0 1 455.24 105.89
  L 454.32 105.89
  A 4.85 4.85 0.0 0 1 449.47 101.04
  L 449.47 98.88
  A 4.85 4.85 0.0 0 1 454.32 94.03
  L 455.24 94.03
  A 4.85 4.85 0.0 0 1 460.09 98.88
  L 460.09 101.04
  Z
  M 454.7631 96.0100
  A 3.93 2.95 -90.1 0 0 451.8200 99.9451
  A 3.93 2.95 -90.1 0 0 454.7769 103.8700
  A 3.93 2.95 -90.1 0 0 457.7200 99.9349
  A 3.93 2.95 -90.1 0 0 454.7631 96.0100
  Z"
/>
<path fill="#116932" d="
  M 478.55 100.67
  A 0.99 0.98 67.4 0 0 477.85 102.35
  Q 480.77 105.21 482.73 102.78
  A 1.22 1.21 27.4 0 1 484.04 102.37
  L 484.80 102.60
  A 0.68 0.68 0.0 0 1 485.17 103.62
  C 482.45 107.90 476.02 106.25 475.18 101.20
  C 474.75 98.55 475.71 94.75 478.80 94.23
  C 483.75 93.39 485.62 95.87 485.67 100.30
  A 0.38 0.38 0.0 0 1 485.29 100.68
  L 478.55 100.67
  Z
  M 477.85 98.82
  L 482.83 98.78
  A 0.20 0.20 0.0 0 0 483.03 98.58
  L 483.03 98.47
  A 2.58 2.41 -0.5 0 0 480.43 96.08
  L 480.21 96.08
  A 2.58 2.41 -0.5 0 0 477.65 98.51
  L 477.65 98.62
  A 0.20 0.20 0.0 0 0 477.85 98.82
  Z"
/>
<path fill="#116932" d="
  M 501.76 97.38
  Q 501.75 97.38 501.21 97.24
  A 2.06 2.01 72.2 0 1 500.42 96.82
  Q 498.75 95.40 497.17 96.33
  A 1.12 1.12 0.0 0 0 497.41 98.38
  L 501.88 99.72
  A 0.38 0.36 76.3 0 1 502.08 99.85
  C 506.23 104.77 498.29 107.77 494.62 104.59
  Q 493.78 103.88 493.87 103.20
  A 1.34 1.30 35.3 0 1 496.36 102.80
  Q 497.31 104.62 500.10 103.36
  A 1.03 1.02 37.1 0 0 499.83 101.41
  Q 497.40 101.05 494.93 99.69
  A 1.36 1.35 7.0 0 1 494.28 98.86
  C 492.75 93.31 498.47 93.79 501.69 94.71
  A 1.40 1.40 0.0 0 1 501.76 97.38
  Z"
/>
<path fill="#116932" d="
  M 526.67 95.03
  C 527.17 94.14 528.14 93.87 529.09 93.97
  A 0.94 0.93 2.7 0 1 529.94 94.90
  L 529.94 95.56
  A 0.76 0.76 0.0 0 1 529.11 96.32
  C 526.59 96.08 526.00 97.55 526.02 99.90
  Q 526.03 102.65 526.04 105.22
  A 0.58 0.58 0.0 0 1 525.46 105.80
  L 524.12 105.80
  A 0.55 0.55 0.0 0 1 523.57 105.25
  L 523.57 94.57
  A 0.33 0.32 79.3 0 1 523.77 94.27
  Q 525.65 93.51 526.04 94.95
  A 0.34 0.34 0.0 0 0 526.67 95.03
  Z"
/>
<path fill="#116932" d="
  M 538.40 105.15
  A 0.42 0.42 0.0 0 0 537.78 105.01
  C 535.02 107.08 531.16 106.05 531.02 102.27
  A 2.91 2.91 0.0 0 1 533.25 99.32
  Q 534.45 99.03 537.37 98.64
  A 1.09 1.09 0.0 0 0 537.81 96.64
  Q 535.70 95.29 533.83 97.04
  A 1.27 1.13 -11.5 0 1 531.79 95.86
  C 532.73 93.97 535.65 93.88 537.63 94.14
  Q 540.91 94.60 540.83 98.71
  Q 540.71 104.50 540.85 105.14
  A 0.58 0.57 80.1 0 1 540.37 105.83
  Q 538.90 106.05 538.40 105.15
  Z
  M 537.35 100.46
  L 534.27 101.20
  A 1.18 1.18 0.0 0 0 533.99 103.39
  Q 536.76 104.83 538.44 101.91
  A 0.98 0.98 0.0 0 0 537.35 100.46
  Z"
/>
<path fill="#116932" d="
  M 543.16 100.02
  C 543.08 95.80 545.62 93.19 550.03 94.14
  Q 552.25 94.62 553.13 96.58
  A 0.80 0.80 0.0 0 1 552.67 97.66
  L 552.00 97.90
  A 1.11 1.10 68.0 0 1 550.63 97.31
  Q 549.77 95.38 547.33 96.40
  C 545.90 97.00 545.57 98.35 545.60 99.98
  C 545.64 101.60 546.02 102.94 547.47 103.48
  Q 549.95 104.41 550.73 102.44
  A 1.11 1.10 -70.3 0 1 552.08 101.80
  L 552.75 102.01
  A 0.80 0.80 0.0 0 1 553.26 103.08
  Q 552.45 105.07 550.25 105.63
  C 545.89 106.76 543.24 104.25 543.16 100.02
  Z"
/>
<path fill="#116932" d="
  M 558.74 100.68
  A 0.99 0.98 67.2 0 0 558.06 102.36
  Q 560.99 105.21 562.94 102.77
  A 1.22 1.21 27.2 0 1 564.25 102.36
  L 565.01 102.59
  A 0.68 0.68 0.0 0 1 565.39 103.61
  C 562.67 107.90 556.24 106.27 555.38 101.22
  C 554.93 98.57 555.88 94.76 558.98 94.22
  C 563.93 93.36 565.81 95.85 565.87 100.28
  A 0.38 0.38 0.0 0 1 565.49 100.66
  L 558.74 100.68
  Z
  M 558.04 98.82
  L 563.02 98.78
  A 0.19 0.19 0.0 0 0 563.21 98.59
  L 563.21 98.48
  A 2.55 2.40 -0.4 0 0 560.64 96.10
  L 560.38 96.10
  A 2.55 2.40 -0.4 0 0 557.85 98.52
  L 557.85 98.63
  A 0.19 0.19 0.0 0 0 558.04 98.82
  Z"
/>
<path fill="#116932" d="
  M 580.95 94.08
  Q 581.83 94.08 582.13 94.37
  A 1.40 1.38 14.6 0 1 582.54 95.07
  L 584.12 101.90
  A 0.14 0.14 0.0 0 0 584.39 101.91
  L 586.53 94.84
  A 0.98 0.97 1.5 0 1 587.24 94.17
  L 588.17 93.95
  A 0.70 0.69 -88.0 0 1 588.99 94.83
  L 585.92 105.00
  A 1.43 1.43 0.0 0 1 583.18 104.99
  Q 581.09 97.83 580.95 97.83
  Q 580.80 97.83 578.69 104.98
  A 1.43 1.43 0.0 0 1 575.95 104.98
  L 572.92 94.80
  A 0.70 0.69 88.2 0 1 573.74 93.92
  L 574.67 94.15
  A 0.98 0.97 -1.3 0 1 575.38 94.82
  L 577.49 101.90
  A 0.14 0.14 0.0 0 0 577.76 101.89
  L 579.36 95.06
  A 1.40 1.38 -14.4 0 1 579.78 94.37
  Q 580.07 94.08 580.95 94.08
  Z"
/>
<rect fill="#116932" x="590.97" y="94.15" width="2.50" height="11.62" rx="0.47"/>
<path fill="#116932" d="
  M 670.19 104.39
  Q 668.15 106.08 665.81 105.30
  C 662.41 104.18 661.92 100.24 662.83 97.29
  Q 663.96 93.56 668.19 94.12
  Q 669.89 94.35 670.32 95.29
  A 0.15 0.15 0.0 0 0 670.60 95.23
  Q 670.60 94.31 671.76 94.00
  A 1.06 1.05 82.3 0 1 673.09 95.02
  Q 673.04 106.16 673.01 106.46
  C 672.67 110.99 665.93 111.20 663.38 108.55
  A 0.96 0.95 50.4 0 1 663.51 107.10
  L 663.79 106.90
  A 1.16 1.16 0.0 0 1 665.36 107.11
  Q 667.00 109.10 669.60 107.78
  A 1.07 1.07 0.0 0 0 670.15 107.12
  L 670.84 104.83
  A 0.41 0.41 0.0 0 0 670.19 104.39
  Z
  M 667.8069 96.0200
  A 3.76 2.89 -90.2 0 0 664.9300 99.7901
  A 3.76 2.89 -90.2 0 0 667.8331 103.5400
  A 3.76 2.89 -90.2 0 0 670.7100 99.7699
  A 3.76 2.89 -90.2 0 0 667.8069 96.0200
  Z"
/>
<path fill="#116932" d="
  M 678.93 100.67
  A 0.99 0.99 0.0 0 0 678.24 102.36
  Q 681.17 105.22 683.13 102.78
  A 1.23 1.21 27.3 0 1 684.44 102.37
  L 685.20 102.60
  A 0.68 0.68 0.0 0 1 685.58 103.62
  C 682.85 107.91 676.41 106.27 675.56 101.21
  C 675.12 98.55 676.08 94.74 679.18 94.21
  C 684.14 93.36 686.02 95.85 686.07 100.29
  A 0.38 0.38 0.0 0 1 685.69 100.67
  L 678.93 100.67
  Z
  M 678.14 98.82
  L 683.30 98.82
  A 0.19 0.19 0.0 0 0 683.49 98.63
  L 683.49 98.51
  A 2.68 2.41 0.1 0 0 680.81 96.10
  L 680.63 96.10
  A 2.68 2.41 0.1 0 0 677.95 98.51
  L 677.95 98.63
  A 0.19 0.19 0.0 0 0 678.14 98.82
  Z"
/>
<path fill="#116932" d="
  M 690.63 94.91
  A 0.32 0.32 0.0 0 0 691.16 95.10
  Q 691.94 94.41 692.52 94.28
  C 697.03 93.23 698.21 95.70 698.16 99.89
  Q 698.12 102.60 698.19 105.05
  A 0.81 0.81 0.0 0 1 697.38 105.89
  L 696.43 105.89
  A 0.73 0.72 -0.3 0 1 695.69 105.17
  L 695.64 98.40
  A 2.19 2.19 0.0 0 0 693.29 96.23
  L 693.01 96.24
  A 2.34 2.34 0.0 0 0 690.73 98.59
  L 690.76 105.35
  A 0.52 0.52 0.0 0 1 690.25 105.87
  L 688.86 105.88
  A 0.56 0.56 0.0 0 1 688.30 105.32
  L 688.24 94.61
  A 0.51 0.51 0.0 0 1 688.72 94.09
  Q 690.48 93.97 690.63 94.91
  Z"
/>
<path fill="#116932" d="
  M 715.50 97.38
  Q 715.49 97.38 714.95 97.24
  A 2.06 2.01 72.4 0 1 714.17 96.82
  Q 712.50 95.39 710.91 96.32
  A 1.12 1.12 0.0 0 0 711.15 98.36
  L 715.62 99.73
  A 0.38 0.36 76.5 0 1 715.82 99.86
  C 719.96 104.79 712.00 107.77 708.34 104.58
  Q 707.50 103.87 707.59 103.18
  A 1.34 1.30 35.5 0 1 710.09 102.79
  Q 711.03 104.61 713.83 103.36
  A 1.03 1.02 37.3 0 0 713.56 101.41
  Q 711.14 101.04 708.66 99.67
  A 1.37 1.36 7.2 0 1 708.02 98.84
  C 706.51 93.28 712.23 93.78 715.45 94.71
  A 1.40 1.40 0.0 0 1 715.50 97.38
  Z"
/>
<path fill="#ecfcf4" d="
  M 754.0630 102.8998
  A 0.80 0.80 0.0 0 1 753.2616 103.6984
  L 743.6016 103.6816
  A 0.80 0.80 0.0 0 1 742.8030 102.8802
  L 742.8170 94.8602
  A 0.80 0.80 0.0 0 1 743.6184 94.0616
  L 753.2784 94.0784
  A 0.80 0.80 0.0 0 1 754.0770 94.8798
  L 754.0630 102.8998
  Z
  M 747.09 98.77
  A 1.15 1.15 0.0 0 0 745.94 97.62
  A 1.15 1.15 0.0 0 0 744.79 98.77
  A 1.15 1.15 0.0 0 0 745.94 99.92
  A 1.15 1.15 0.0 0 0 747.09 98.77
  Z
  M 749.6649 98.5582
  A 1.24 1.08 -171.1 0 0 750.7229 99.8170
  A 1.24 1.08 -171.1 0 0 752.1151 98.9418
  A 1.24 1.08 -171.1 0 0 751.0571 97.6830
  A 1.24 1.08 -171.1 0 0 749.6649 98.5582
  Z"
/>
<path fill="#ecfcf4" d="
  M 277.43 98.88
  A 0.19 0.19 0.0 0 1 277.23 98.69
  L 277.23 98.57
  A 2.58 2.43 -1.1 0 1 279.76 96.09
  L 280.06 96.09
  A 2.58 2.43 -1.1 0 1 282.69 98.47
  L 282.69 98.59
  A 0.19 0.19 0.0 0 1 282.51 98.78
  L 277.43 98.88
  Z"
/>
<ellipse fill="#ecfcf4" cx="0.00" cy="0.00" transform="translate(311.33,99.94) rotate(-90.3)" rx="3.93" ry="2.94"/>
<ellipse fill="#ecfcf4" cx="0.00" cy="0.00" transform="translate(324.08,99.93) rotate(-90.4)" rx="3.87" ry="3.06"/>
<path fill="#ecfcf4" d="
  M 395.27 98.90
  A 0.20 0.20 0.0 0 1 395.07 98.70
  L 395.06 98.59
  A 2.54 2.45 -1.3 0 1 397.55 96.08
  L 397.83 96.08
  A 2.54 2.45 -1.3 0 1 400.42 98.47
  L 400.43 98.58
  A 0.20 0.20 0.0 0 1 400.23 98.78
  L 395.27 98.90
  Z"
/>
<ellipse fill="#ecfcf4" cx="0.00" cy="0.00" transform="translate(454.77,99.94) rotate(-90.1)" rx="3.93" ry="2.95"/>
<ellipse fill="#ecfcf4" cx="0.00" cy="0.00" transform="translate(467.45,99.92) rotate(-89.9)" rx="3.86" ry="2.96"/>
<path fill="#ecfcf4" d="
  M 477.85 98.82
  A 0.20 0.20 0.0 0 1 477.65 98.62
  L 477.65 98.51
  A 2.58 2.41 -0.5 0 1 480.21 96.08
  L 480.43 96.08
  A 2.58 2.41 -0.5 0 1 483.03 98.47
  L 483.03 98.58
  A 0.20 0.20 0.0 0 1 482.83 98.78
  L 477.85 98.82
  Z"
/>
<path fill="#ecfcf4" d="
  M 558.04 98.82
  A 0.19 0.19 0.0 0 1 557.85 98.63
  L 557.85 98.52
  A 2.55 2.40 -0.4 0 1 560.38 96.10
  L 560.64 96.10
  A 2.55 2.40 -0.4 0 1 563.21 98.48
  L 563.21 98.59
  A 0.19 0.19 0.0 0 1 563.02 98.78
  L 558.04 98.82
  Z"
/>
<ellipse fill="#ecfcf4" cx="0.00" cy="0.00" transform="translate(667.82,99.78) rotate(-90.2)" rx="3.76" ry="2.89"/>
<path fill="#ecfcf4" d="
  M 678.14 98.82
  A 0.19 0.19 0.0 0 1 677.95 98.63
  L 677.95 98.51
  A 2.68 2.41 0.1 0 1 680.63 96.10
  L 680.81 96.10
  A 2.68 2.41 0.1 0 1 683.49 98.51
  L 683.49 98.63
  A 0.19 0.19 0.0 0 1 683.30 98.82
  L 678.14 98.82
  Z"
/>
<ellipse fill="#ecfcf4" cx="0.00" cy="0.00" transform="translate(241.46,99.92) rotate(-89.8)" rx="3.87" ry="2.94"/>
<rect fill="#116932" x="-0.87" y="-2.50" transform="translate(739.40,98.86) rotate(0.1)" width="1.74" height="5.00" rx="0.76"/>
<rect fill="#116932" x="-0.71" y="-2.50" transform="translate(757.32,98.87) rotate(0.4)" width="1.42" height="5.00" rx="0.55"/>
<path fill="#116932" d="
  M 772.32 100.47
  C 772.32 100.81 773.75 101.86 774.16 102.52
  A 0.78 0.77 86.0 0 1 773.19 103.64
  Q 772.47 103.32 770.29 100.77
  Q 770.22 100.68 770.22 100.48
  Q 770.22 100.23 770.29 100.15
  Q 772.47 97.60 773.19 97.28
  A 0.78 0.77 -86.0 0 1 774.16 98.40
  C 773.75 99.06 772.32 100.11 772.32 100.47
  Z"
/>
<path fill="#116932" d="
  M 780.05 100.39
  Q 780.05 100.63 779.98 100.71
  Q 777.84 103.28 777.13 103.60
  A 0.77 0.77 0.0 0 1 776.15 102.50
  C 776.55 101.84 777.96 100.78 777.96 100.42
  C 777.96 100.09 776.52 99.06 776.10 98.41
  A 0.77 0.77 0.0 0 1 777.05 97.28
  Q 777.77 97.59 779.97 100.10
  Q 780.04 100.18 780.05 100.39
  Z"
/>
<circle fill="#116932" cx="745.94" cy="98.77" r="1.15"/>
<ellipse fill="#116932" cx="0.00" cy="0.00" transform="translate(750.89,98.75) rotate(-171.1)" rx="1.24" ry="1.08"/>
<rect fill="#ecfcf4" x="-1.44" y="-1.42" transform="translate(803.44,100.00) rotate(-26.9)" width="2.88" height="2.84" rx="0.80"/>
<path fill="#ecfcf4" d="
  M 362.54 100.49
  A 0.99 0.99 0.0 0 1 363.62 101.95
  Q 361.91 104.88 359.14 103.41
  A 1.18 1.18 0.0 0 1 359.43 101.21
  L 362.54 100.49
  Z"
/>
<path fill="#ecfcf4" d="
  M 537.35 100.46
  A 0.98 0.98 0.0 0 1 538.44 101.91
  Q 536.76 104.83 533.99 103.39
  A 1.18 1.18 0.0 0 1 534.27 101.20
  L 537.35 100.46
  Z"
/>
<path fill="#116932" d="
  M 810.63 102.77
  L 810.63 106.90
  A 0.85 0.85 0.0 0 1 809.78 107.75
  L 809.53 107.75
  A 0.44 0.43 90.0 0 1 809.10 107.31
  L 809.10 103.53
  A 0.38 0.37 60.1 0 0 808.40 103.34
  L 806.51 106.62
  A 0.66 0.66 0.0 0 1 805.61 106.86
  L 805.32 106.69
  A 0.26 0.26 0.0 0 1 805.22 106.33
  C 806.68 103.64 807.53 101.36 810.47 100.85
  A 0.79 0.79 0.0 0 1 811.26 101.18
  L 814.43 105.74
  A 0.64 0.64 0.0 0 1 814.27 106.62
  L 813.97 106.82
  A 0.27 0.27 0.0 0 1 813.60 106.75
  L 810.80 102.72
  A 0.09 0.09 0.0 0 0 810.63 102.77
  Z"
/>
</svg>
